<?xml version="1.0" encoding="utf-8" standalone="no"?>
<!DOCTYPE svg PUBLIC "-//W3C//DTD SVG 1.1//EN"
  "http://www.w3.org/Graphics/SVG/1.1/DTD/svg11.dtd">
<svg xmlns:xlink="http://www.w3.org/1999/xlink" width="872.39952pt" height="296.39952pt" viewBox="0 0 872.39952 296.39952" xmlns="http://www.w3.org/2000/svg" version="1.1">
 <metadata>
  <rdf:RDF xmlns:dc="http://purl.org/dc/elements/1.1/" xmlns:cc="http://creativecommons.org/ns#" xmlns:rdf="http://www.w3.org/1999/02/22-rdf-syntax-ns#">
   <cc:Work>
    <dc:type rdf:resource="http://purl.org/dc/dcmitype/StillImage"/>
    <dc:date>2026-09-15T13:59:15.726773</dc:date>
    <dc:format>image/svg+xml</dc:format>
    <dc:creator>
     <cc:Agent>
      <dc:title>Matplotlib v3.11.2, https://matplotlib.org/</dc:title>
     </cc:Agent>
    </dc:creator>
   </cc:Work>
  </rdf:RDF>
 </metadata>
 <defs>
  <style type="text/css">*{stroke-linejoin: round; stroke-linecap: butt}</style>
 </defs>
 <g id="figure_1">
  <g id="patch_1">
   <path d="M 0 296.39952 
L 872.39952 296.39952 
L 872.39952 0 
L 0 0 
z
" style="fill: #ffffff"/>
  </g>
  <g id="axes_1">
   <g id="patch_2">
    <path d="M 47.288281 256.514364 
L 428.58101 256.514364 
L 428.58101 7.2 
L 47.288281 7.2 
z
" style="fill: #ffffff"/>
   </g>
   <g id="matplotlib.axis_1">
    <g id="xtick_1">
     <g id="line2d_1">
      <defs>
       <path id="mb36a5cb9f9" d="M 0 0 
L 0 3.5 
" style="stroke: #000000; stroke-width: 0.8"/>
      </defs>
      <g>
       <use xlink:href="#mb36a5cb9f9" x="96.699331" y="256.514364" style="stroke: #000000; stroke-width: 0.8"/>
      </g>
     </g>
     <g id="text_1">
      <!-- 120000 -->
      <g transform="translate(77.611831 271.11202) scale(0.1 -0.1)">
       <defs>
        <path id="DejaVuSans-14" d="M 794 531 
L 1825 531 
L 1825 4091 
L 703 3866 
L 703 4441 
L 1819 4666 
L 2450 4666 
L 2450 531 
L 3481 531 
L 3481 0 
L 794 0 
L 794 531 
z
" transform="scale(0.015625)"/>
        <path id="DejaVuSans-15" d="M 1228 531 
L 3431 531 
L 3431 0 
L 469 0 
L 469 531 
Q 828 903 1448 1529 
Q 2069 2156 2228 2338 
Q 2531 2678 2651 2914 
Q 2772 3150 2772 3378 
Q 2772 3750 2511 3984 
Q 2250 4219 1831 4219 
Q 1534 4219 1204 4116 
Q 875 4013 500 3803 
L 500 4441 
Q 881 4594 1212 4672 
Q 1544 4750 1819 4750 
Q 2544 4750 2975 4387 
Q 3406 4025 3406 3419 
Q 3406 3131 3298 2873 
Q 3191 2616 2906 2266 
Q 2828 2175 2409 1742 
Q 1991 1309 1228 531 
z
" transform="scale(0.015625)"/>
        <path id="DejaVuSans-13" d="M 2034 4250 
Q 1547 4250 1301 3770 
Q 1056 3291 1056 2328 
Q 1056 1369 1301 889 
Q 1547 409 2034 409 
Q 2525 409 2770 889 
Q 3016 1369 3016 2328 
Q 3016 3291 2770 3770 
Q 2525 4250 2034 4250 
z
M 2034 4750 
Q 2819 4750 3233 4129 
Q 3647 3509 3647 2328 
Q 3647 1150 3233 529 
Q 2819 -91 2034 -91 
Q 1250 -91 836 529 
Q 422 1150 422 2328 
Q 422 3509 836 4129 
Q 1250 4750 2034 4750 
z
" transform="scale(0.015625)"/>
       </defs>
       <use xlink:href="#DejaVuSans-14"/>
       <use xlink:href="#DejaVuSans-15" transform="translate(63.625 0)"/>
       <use xlink:href="#DejaVuSans-13" transform="translate(127.25 0)"/>
       <use xlink:href="#DejaVuSans-13" transform="translate(190.875 0)"/>
       <use xlink:href="#DejaVuSans-13" transform="translate(254.5 0)"/>
       <use xlink:href="#DejaVuSans-13" transform="translate(318.125 0)"/>
      </g>
     </g>
    </g>
    <g id="xtick_2">
     <g id="line2d_2">
      <g>
       <use xlink:href="#mb36a5cb9f9" x="148.29653" y="256.514364" style="stroke: #000000; stroke-width: 0.8"/>
      </g>
     </g>
     <g id="text_2">
      <!-- 140000 -->
      <g transform="translate(129.20903 271.11202) scale(0.1 -0.1)">
       <defs>
        <path id="DejaVuSans-17" d="M 2419 4116 
L 825 1625 
L 2419 1625 
L 2419 4116 
z
M 2253 4666 
L 3047 4666 
L 3047 1625 
L 3713 1625 
L 3713 1100 
L 3047 1100 
L 3047 0 
L 2419 0 
L 2419 1100 
L 313 1100 
L 313 1709 
L 2253 4666 
z
" transform="scale(0.015625)"/>
       </defs>
       <use xlink:href="#DejaVuSans-14"/>
       <use xlink:href="#DejaVuSans-17" transform="translate(63.625 0)"/>
       <use xlink:href="#DejaVuSans-13" transform="translate(127.25 0)"/>
       <use xlink:href="#DejaVuSans-13" transform="translate(190.875 0)"/>
       <use xlink:href="#DejaVuSans-13" transform="translate(254.5 0)"/>
       <use xlink:href="#DejaVuSans-13" transform="translate(318.125 0)"/>
      </g>
     </g>
    </g>
    <g id="xtick_3">
     <g id="line2d_3">
      <g>
       <use xlink:href="#mb36a5cb9f9" x="199.893729" y="256.514364" style="stroke: #000000; stroke-width: 0.8"/>
      </g>
     </g>
     <g id="text_3">
      <!-- 160000 -->
      <g transform="translate(180.806229 271.11202) scale(0.1 -0.1)">
       <defs>
        <path id="DejaVuSans-19" d="M 2113 2584 
Q 1688 2584 1439 2293 
Q 1191 2003 1191 1497 
Q 1191 994 1439 701 
Q 1688 409 2113 409 
Q 2538 409 2786 701 
Q 3034 994 3034 1497 
Q 3034 2003 2786 2293 
Q 2538 2584 2113 2584 
z
M 3366 4563 
L 3366 3988 
Q 3128 4100 2886 4159 
Q 2644 4219 2406 4219 
Q 1781 4219 1451 3797 
Q 1122 3375 1075 2522 
Q 1259 2794 1537 2939 
Q 1816 3084 2150 3084 
Q 2853 3084 3261 2657 
Q 3669 2231 3669 1497 
Q 3669 778 3244 343 
Q 2819 -91 2113 -91 
Q 1303 -91 875 529 
Q 447 1150 447 2328 
Q 447 3434 972 4092 
Q 1497 4750 2381 4750 
Q 2619 4750 2861 4703 
Q 3103 4656 3366 4563 
z
" transform="scale(0.015625)"/>
       </defs>
       <use xlink:href="#DejaVuSans-14"/>
       <use xlink:href="#DejaVuSans-19" transform="translate(63.625 0)"/>
       <use xlink:href="#DejaVuSans-13" transform="translate(127.25 0)"/>
       <use xlink:href="#DejaVuSans-13" transform="translate(190.875 0)"/>
       <use xlink:href="#DejaVuSans-13" transform="translate(254.5 0)"/>
       <use xlink:href="#DejaVuSans-13" transform="translate(318.125 0)"/>
      </g>
     </g>
    </g>
    <g id="xtick_4">
     <g id="line2d_4">
      <g>
       <use xlink:href="#mb36a5cb9f9" x="251.490928" y="256.514364" style="stroke: #000000; stroke-width: 0.8"/>
      </g>
     </g>
     <g id="text_4">
      <!-- 180000 -->
      <g transform="translate(232.403428 271.11202) scale(0.1 -0.1)">
       <defs>
        <path id="DejaVuSans-1b" d="M 2034 2216 
Q 1584 2216 1326 1975 
Q 1069 1734 1069 1313 
Q 1069 891 1326 650 
Q 1584 409 2034 409 
Q 2484 409 2743 651 
Q 3003 894 3003 1313 
Q 3003 1734 2745 1975 
Q 2488 2216 2034 2216 
z
M 1403 2484 
Q 997 2584 770 2862 
Q 544 3141 544 3541 
Q 544 4100 942 4425 
Q 1341 4750 2034 4750 
Q 2731 4750 3128 4425 
Q 3525 4100 3525 3541 
Q 3525 3141 3298 2862 
Q 3072 2584 2669 2484 
Q 3125 2378 3379 2068 
Q 3634 1759 3634 1313 
Q 3634 634 3220 271 
Q 2806 -91 2034 -91 
Q 1263 -91 848 271 
Q 434 634 434 1313 
Q 434 1759 690 2068 
Q 947 2378 1403 2484 
z
M 1172 3481 
Q 1172 3119 1398 2916 
Q 1625 2713 2034 2713 
Q 2441 2713 2670 2916 
Q 2900 3119 2900 3481 
Q 2900 3844 2670 4047 
Q 2441 4250 2034 4250 
Q 1625 4250 1398 4047 
Q 1172 3844 1172 3481 
z
" transform="scale(0.015625)"/>
       </defs>
       <use xlink:href="#DejaVuSans-14"/>
       <use xlink:href="#DejaVuSans-1b" transform="translate(63.625 0)"/>
       <use xlink:href="#DejaVuSans-13" transform="translate(127.25 0)"/>
       <use xlink:href="#DejaVuSans-13" transform="translate(190.875 0)"/>
       <use xlink:href="#DejaVuSans-13" transform="translate(254.5 0)"/>
       <use xlink:href="#DejaVuSans-13" transform="translate(318.125 0)"/>
      </g>
     </g>
    </g>
    <g id="xtick_5">
     <g id="line2d_5">
      <g>
       <use xlink:href="#mb36a5cb9f9" x="303.088127" y="256.514364" style="stroke: #000000; stroke-width: 0.8"/>
      </g>
     </g>
     <g id="text_5">
      <!-- 200000 -->
      <g transform="translate(284.000627 271.11202) scale(0.1 -0.1)">
       <use xlink:href="#DejaVuSans-15"/>
       <use xlink:href="#DejaVuSans-13" transform="translate(63.625 0)"/>
       <use xlink:href="#DejaVuSans-13" transform="translate(127.25 0)"/>
       <use xlink:href="#DejaVuSans-13" transform="translate(190.875 0)"/>
       <use xlink:href="#DejaVuSans-13" transform="translate(254.5 0)"/>
       <use xlink:href="#DejaVuSans-13" transform="translate(318.125 0)"/>
      </g>
     </g>
    </g>
    <g id="xtick_6">
     <g id="line2d_6">
      <g>
       <use xlink:href="#mb36a5cb9f9" x="354.685326" y="256.514364" style="stroke: #000000; stroke-width: 0.8"/>
      </g>
     </g>
     <g id="text_6">
      <!-- 220000 -->
      <g transform="translate(335.597826 271.11202) scale(0.1 -0.1)">
       <use xlink:href="#DejaVuSans-15"/>
       <use xlink:href="#DejaVuSans-15" transform="translate(63.625 0)"/>
       <use xlink:href="#DejaVuSans-13" transform="translate(127.25 0)"/>
       <use xlink:href="#DejaVuSans-13" transform="translate(190.875 0)"/>
       <use xlink:href="#DejaVuSans-13" transform="translate(254.5 0)"/>
       <use xlink:href="#DejaVuSans-13" transform="translate(318.125 0)"/>
      </g>
     </g>
    </g>
    <g id="xtick_7">
     <g id="line2d_7">
      <g>
       <use xlink:href="#mb36a5cb9f9" x="406.282525" y="256.514364" style="stroke: #000000; stroke-width: 0.8"/>
      </g>
     </g>
     <g id="text_7">
      <!-- 240000 -->
      <g transform="translate(387.195025 271.11202) scale(0.1 -0.1)">
       <use xlink:href="#DejaVuSans-15"/>
       <use xlink:href="#DejaVuSans-17" transform="translate(63.625 0)"/>
       <use xlink:href="#DejaVuSans-13" transform="translate(127.25 0)"/>
       <use xlink:href="#DejaVuSans-13" transform="translate(190.875 0)"/>
       <use xlink:href="#DejaVuSans-13" transform="translate(254.5 0)"/>
       <use xlink:href="#DejaVuSans-13" transform="translate(318.125 0)"/>
      </g>
     </g>
    </g>
    <g id="text_8">
     <!-- toa [µs] -->
     <g transform="translate(218.574489 285.112801) scale(0.1 -0.1)">
      <defs>
       <path id="DejaVuSans-57" d="M 1172 4494 
L 1172 3500 
L 2356 3500 
L 2356 3053 
L 1172 3053 
L 1172 1153 
Q 1172 725 1289 603 
Q 1406 481 1766 481 
L 2356 481 
L 2356 0 
L 1766 0 
Q 1100 0 847 248 
Q 594 497 594 1153 
L 594 3053 
L 172 3053 
L 172 3500 
L 594 3500 
L 594 4494 
L 1172 4494 
z
" transform="scale(0.015625)"/>
       <path id="DejaVuSans-52" d="M 1959 3097 
Q 1497 3097 1228 2736 
Q 959 2375 959 1747 
Q 959 1119 1226 758 
Q 1494 397 1959 397 
Q 2419 397 2687 759 
Q 2956 1122 2956 1747 
Q 2956 2369 2687 2733 
Q 2419 3097 1959 3097 
z
M 1959 3584 
Q 2709 3584 3137 3096 
Q 3566 2609 3566 1747 
Q 3566 888 3137 398 
Q 2709 -91 1959 -91 
Q 1206 -91 779 398 
Q 353 888 353 1747 
Q 353 2609 779 3096 
Q 1206 3584 1959 3584 
z
" transform="scale(0.015625)"/>
       <path id="DejaVuSans-44" d="M 2194 1759 
Q 1497 1759 1228 1600 
Q 959 1441 959 1056 
Q 959 750 1161 570 
Q 1363 391 1709 391 
Q 2188 391 2477 730 
Q 2766 1069 2766 1631 
L 2766 1759 
L 2194 1759 
z
M 3341 1997 
L 3341 0 
L 2766 0 
L 2766 531 
Q 2569 213 2275 61 
Q 1981 -91 1556 -91 
Q 1019 -91 701 211 
Q 384 513 384 1019 
Q 384 1609 779 1909 
Q 1175 2209 1959 2209 
L 2766 2209 
L 2766 2266 
Q 2766 2663 2505 2880 
Q 2244 3097 1772 3097 
Q 1472 3097 1187 3025 
Q 903 2953 641 2809 
L 641 3341 
Q 956 3463 1253 3523 
Q 1550 3584 1831 3584 
Q 2591 3584 2966 3190 
Q 3341 2797 3341 1997 
z
" transform="scale(0.015625)"/>
       <path id="DejaVuSans-3" transform="scale(0.015625)"/>
       <path id="DejaVuSans-3e" d="M 550 4863 
L 1875 4863 
L 1875 4416 
L 1125 4416 
L 1125 -397 
L 1875 -397 
L 1875 -844 
L 550 -844 
L 550 4863 
z
" transform="scale(0.015625)"/>
       <path id="DejaVuSans-77" d="M 544 -1331 
L 544 3500 
L 1119 3500 
L 1119 1325 
Q 1119 872 1334 640 
Q 1550 409 1972 409 
Q 2434 409 2667 671 
Q 2900 934 2900 1459 
L 2900 3500 
L 3475 3500 
L 3475 806 
Q 3475 619 3529 530 
Q 3584 441 3700 441 
Q 3728 441 3778 458 
Q 3828 475 3916 513 
L 3916 50 
Q 3788 -22 3673 -56 
Q 3559 -91 3450 -91 
Q 3234 -91 3106 31 
Q 2978 153 2931 403 
Q 2775 156 2548 32 
Q 2322 -91 2016 -91 
Q 1697 -91 1473 31 
Q 1250 153 1119 397 
L 1119 -1331 
L 544 -1331 
z
" transform="scale(0.015625)"/>
       <path id="DejaVuSans-56" d="M 2834 3397 
L 2834 2853 
Q 2591 2978 2328 3040 
Q 2066 3103 1784 3103 
Q 1356 3103 1142 2972 
Q 928 2841 928 2578 
Q 928 2378 1081 2264 
Q 1234 2150 1697 2047 
L 1894 2003 
Q 2506 1872 2764 1633 
Q 3022 1394 3022 966 
Q 3022 478 2636 193 
Q 2250 -91 1575 -91 
Q 1294 -91 989 -36 
Q 684 19 347 128 
L 347 722 
Q 666 556 975 473 
Q 1284 391 1588 391 
Q 1994 391 2212 530 
Q 2431 669 2431 922 
Q 2431 1156 2273 1281 
Q 2116 1406 1581 1522 
L 1381 1569 
Q 847 1681 609 1914 
Q 372 2147 372 2553 
Q 372 3047 722 3315 
Q 1072 3584 1716 3584 
Q 2034 3584 2315 3537 
Q 2597 3491 2834 3397 
z
" transform="scale(0.015625)"/>
       <path id="DejaVuSans-40" d="M 1947 4863 
L 1947 -844 
L 622 -844 
L 622 -397 
L 1369 -397 
L 1369 4416 
L 622 4416 
L 622 4863 
L 1947 4863 
z
" transform="scale(0.015625)"/>
      </defs>
      <use xlink:href="#DejaVuSans-57"/>
      <use xlink:href="#DejaVuSans-52" transform="translate(39.203125 0)"/>
      <use xlink:href="#DejaVuSans-44" transform="translate(100.390625 0)"/>
      <use xlink:href="#DejaVuSans-3" transform="translate(161.671875 0)"/>
      <use xlink:href="#DejaVuSans-3e" transform="translate(193.453125 0)"/>
      <use xlink:href="#DejaVuSans-77" transform="translate(232.46875 0)"/>
      <use xlink:href="#DejaVuSans-56" transform="translate(296.09375 0)"/>
      <use xlink:href="#DejaVuSans-40" transform="translate(348.1875 0)"/>
     </g>
    </g>
   </g>
   <g id="matplotlib.axis_2">
    <g id="ytick_1">
     <g id="line2d_8">
      <defs>
       <path id="mfe1dde181f" d="M 0 0 
L -3.5 0 
" style="stroke: #000000; stroke-width: 0.8"/>
      </defs>
      <g>
       <use xlink:href="#mfe1dde181f" x="47.288281" y="209.014432" style="stroke: #000000; stroke-width: 0.8"/>
      </g>
     </g>
     <g id="text_9">
      <!-- 20 -->
      <g transform="translate(27.563281 212.81326) scale(0.1 -0.1)">
       <use xlink:href="#DejaVuSans-15"/>
       <use xlink:href="#DejaVuSans-13" transform="translate(63.625 0)"/>
      </g>
     </g>
    </g>
    <g id="ytick_2">
     <g id="line2d_9">
      <g>
       <use xlink:href="#mfe1dde181f" x="47.288281" y="160.791151" style="stroke: #000000; stroke-width: 0.8"/>
      </g>
     </g>
     <g id="text_10">
      <!-- 40 -->
      <g transform="translate(27.563281 164.589979) scale(0.1 -0.1)">
       <use xlink:href="#DejaVuSans-17"/>
       <use xlink:href="#DejaVuSans-13" transform="translate(63.625 0)"/>
      </g>
     </g>
    </g>
    <g id="ytick_3">
     <g id="line2d_10">
      <g>
       <use xlink:href="#mfe1dde181f" x="47.288281" y="112.567869" style="stroke: #000000; stroke-width: 0.8"/>
      </g>
     </g>
     <g id="text_11">
      <!-- 60 -->
      <g transform="translate(27.563281 116.366698) scale(0.1 -0.1)">
       <use xlink:href="#DejaVuSans-19"/>
       <use xlink:href="#DejaVuSans-13" transform="translate(63.625 0)"/>
      </g>
     </g>
    </g>
    <g id="ytick_4">
     <g id="line2d_11">
      <g>
       <use xlink:href="#mfe1dde181f" x="47.288281" y="64.344588" style="stroke: #000000; stroke-width: 0.8"/>
      </g>
     </g>
     <g id="text_12">
      <!-- 80 -->
      <g transform="translate(27.563281 68.143416) scale(0.1 -0.1)">
       <use xlink:href="#DejaVuSans-1b"/>
       <use xlink:href="#DejaVuSans-13" transform="translate(63.625 0)"/>
      </g>
     </g>
    </g>
    <g id="ytick_5">
     <g id="line2d_12">
      <g>
       <use xlink:href="#mfe1dde181f" x="47.288281" y="16.121307" style="stroke: #000000; stroke-width: 0.8"/>
      </g>
     </g>
     <g id="text_13">
      <!-- 100 -->
      <g transform="translate(21.200781 19.920135) scale(0.1 -0.1)">
       <use xlink:href="#DejaVuSans-14"/>
       <use xlink:href="#DejaVuSans-13" transform="translate(63.625 0)"/>
       <use xlink:href="#DejaVuSans-13" transform="translate(127.25 0)"/>
      </g>
     </g>
    </g>
    <g id="text_14">
     <!-- [counts] -->
     <g transform="translate(14.798438 152.469682) rotate(-90) scale(0.1 -0.1)">
      <defs>
       <path id="DejaVuSans-46" d="M 3122 3366 
L 3122 2828 
Q 2878 2963 2633 3030 
Q 2388 3097 2138 3097 
Q 1578 3097 1268 2742 
Q 959 2388 959 1747 
Q 959 1106 1268 751 
Q 1578 397 2138 397 
Q 2388 397 2633 464 
Q 2878 531 3122 666 
L 3122 134 
Q 2881 22 2623 -34 
Q 2366 -91 2075 -91 
Q 1284 -91 818 406 
Q 353 903 353 1747 
Q 353 2603 823 3093 
Q 1294 3584 2113 3584 
Q 2378 3584 2631 3529 
Q 2884 3475 3122 3366 
z
" transform="scale(0.015625)"/>
       <path id="DejaVuSans-58" d="M 544 1381 
L 544 3500 
L 1119 3500 
L 1119 1403 
Q 1119 906 1312 657 
Q 1506 409 1894 409 
Q 2359 409 2629 706 
Q 2900 1003 2900 1516 
L 2900 3500 
L 3475 3500 
L 3475 0 
L 2900 0 
L 2900 538 
Q 2691 219 2414 64 
Q 2138 -91 1772 -91 
Q 1169 -91 856 284 
Q 544 659 544 1381 
z
M 1991 3584 
L 1991 3584 
z
" transform="scale(0.015625)"/>
       <path id="DejaVuSans-51" d="M 3513 2113 
L 3513 0 
L 2938 0 
L 2938 2094 
Q 2938 2591 2744 2837 
Q 2550 3084 2163 3084 
Q 1697 3084 1428 2787 
Q 1159 2491 1159 1978 
L 1159 0 
L 581 0 
L 581 3500 
L 1159 3500 
L 1159 2956 
Q 1366 3272 1645 3428 
Q 1925 3584 2291 3584 
Q 2894 3584 3203 3211 
Q 3513 2838 3513 2113 
z
" transform="scale(0.015625)"/>
      </defs>
      <use xlink:href="#DejaVuSans-3e"/>
      <use xlink:href="#DejaVuSans-46" transform="translate(39.015625 0)"/>
      <use xlink:href="#DejaVuSans-52" transform="translate(94 0)"/>
      <use xlink:href="#DejaVuSans-58" transform="translate(155.1875 0)"/>
      <use xlink:href="#DejaVuSans-51" transform="translate(218.5625 0)"/>
      <use xlink:href="#DejaVuSans-57" transform="translate(281.9375 0)"/>
      <use xlink:href="#DejaVuSans-56" transform="translate(321.140625 0)"/>
      <use xlink:href="#DejaVuSans-40" transform="translate(373.234375 0)"/>
     </g>
    </g>
   </g>
   <g id="line2d_13">
    <path d="M 56.232569 155.968822 
L 56.828855 155.968822 
L 56.828855 139.090674 
L 57.425141 139.090674 
L 57.425141 127.034854 
L 58.021427 127.034854 
L 58.021427 134.268346 
L 58.617712 134.268346 
L 58.617712 124.62369 
L 59.213998 124.62369 
L 59.213998 119.801362 
L 59.810284 119.801362 
L 59.810284 100.512049 
L 60.40657 100.512049 
L 60.40657 105.334377 
L 61.002856 105.334377 
L 61.002856 57.111096 
L 61.599142 57.111096 
L 61.599142 105.334377 
L 62.195428 105.334377 
L 62.195428 98.100885 
L 62.791713 98.100885 
L 62.791713 73.989244 
L 63.387999 73.989244 
L 63.387999 86.045065 
L 63.984285 86.045065 
L 63.984285 102.923213 
L 64.580571 102.923213 
L 64.580571 112.567869 
L 65.176857 112.567869 
L 65.176857 93.278557 
L 65.773143 93.278557 
L 65.773143 86.045065 
L 66.369429 86.045065 
L 66.369429 76.400409 
L 66.965714 76.400409 
L 66.965714 102.923213 
L 68.158286 102.923213 
L 68.158286 78.811573 
L 68.754572 78.811573 
L 68.754572 59.52226 
L 69.350858 59.52226 
L 69.350858 18.532471 
L 69.947144 18.532471 
L 69.947144 100.512049 
L 70.543429 100.512049 
L 70.543429 54.699932 
L 71.139715 54.699932 
L 71.139715 95.689721 
L 71.736001 95.689721 
L 71.736001 76.400409 
L 72.332287 76.400409 
L 72.332287 73.989244 
L 72.928573 73.989244 
L 72.928573 59.52226 
L 73.524859 59.52226 
L 73.524859 52.288768 
L 74.121145 52.288768 
L 74.121145 69.166916 
L 74.71743 69.166916 
L 74.71743 81.222737 
L 75.313716 81.222737 
L 75.313716 45.055276 
L 75.910002 45.055276 
L 75.910002 61.933424 
L 76.506288 61.933424 
L 76.506288 98.100885 
L 77.102574 98.100885 
L 77.102574 66.755752 
L 77.69886 66.755752 
L 77.69886 37.821784 
L 78.295146 37.821784 
L 78.295146 76.400409 
L 78.891431 76.400409 
L 78.891431 93.278557 
L 79.487717 93.278557 
L 79.487717 110.156705 
L 80.084003 110.156705 
L 80.084003 98.100885 
L 80.680289 98.100885 
L 80.680289 107.745541 
L 81.276575 107.745541 
L 81.276575 127.034854 
L 81.872861 127.034854 
L 81.872861 93.278557 
L 82.469147 93.278557 
L 82.469147 81.222737 
L 83.065432 81.222737 
L 83.065432 90.867393 
L 83.661718 90.867393 
L 83.661718 93.278557 
L 84.258004 93.278557 
L 84.258004 59.52226 
L 84.85429 59.52226 
L 84.85429 81.222737 
L 85.450576 81.222737 
L 85.450576 100.512049 
L 86.046862 100.512049 
L 86.046862 88.456229 
L 86.643147 88.456229 
L 86.643147 107.745541 
L 87.239433 107.745541 
L 87.239433 114.979033 
L 87.835719 114.979033 
L 87.835719 110.156705 
L 88.432005 110.156705 
L 88.432005 78.811573 
L 89.028291 78.811573 
L 89.028291 86.045065 
L 89.624577 86.045065 
L 89.624577 81.222737 
L 90.220863 81.222737 
L 90.220863 124.62369 
L 90.817148 124.62369 
L 90.817148 102.923213 
L 91.413434 102.923213 
L 91.413434 81.222737 
L 92.00972 81.222737 
L 92.00972 122.212526 
L 93.202292 122.212526 
L 93.202292 95.689721 
L 93.798578 95.689721 
L 93.798578 83.633901 
L 94.394864 83.633901 
L 94.394864 100.512049 
L 94.991149 100.512049 
L 94.991149 86.045065 
L 95.587435 86.045065 
L 95.587435 88.456229 
L 96.183721 88.456229 
L 96.183721 117.390198 
L 96.780007 117.390198 
L 96.780007 114.979033 
L 97.376293 114.979033 
L 97.376293 83.633901 
L 97.972579 83.633901 
L 97.972579 107.745541 
L 98.568865 107.745541 
L 98.568865 129.446018 
L 99.16515 129.446018 
L 99.16515 134.268346 
L 99.761436 134.268346 
L 99.761436 136.67951 
L 100.357722 136.67951 
L 100.357722 127.034854 
L 100.954008 127.034854 
L 100.954008 81.222737 
L 101.550294 81.222737 
L 101.550294 95.689721 
L 102.14658 95.689721 
L 102.14658 114.979033 
L 102.742865 114.979033 
L 102.742865 90.867393 
L 103.339151 90.867393 
L 103.339151 110.156705 
L 103.935437 110.156705 
L 103.935437 95.689721 
L 104.531723 95.689721 
L 104.531723 100.512049 
L 105.128009 100.512049 
L 105.128009 95.689721 
L 105.724295 95.689721 
L 105.724295 129.446018 
L 106.320581 129.446018 
L 106.320581 155.968822 
L 106.916866 155.968822 
L 106.916866 102.923213 
L 107.513152 102.923213 
L 107.513152 119.801362 
L 108.109438 119.801362 
L 108.109438 117.390198 
L 108.705724 117.390198 
L 108.705724 110.156705 
L 109.30201 110.156705 
L 109.30201 83.633901 
L 109.898296 83.633901 
L 109.898296 146.324166 
L 110.494582 146.324166 
L 110.494582 129.446018 
L 111.090867 129.446018 
L 111.090867 141.501838 
L 111.687153 141.501838 
L 111.687153 95.689721 
L 112.283439 95.689721 
L 112.283439 119.801362 
L 112.879725 119.801362 
L 112.879725 112.567869 
L 113.476011 112.567869 
L 113.476011 124.62369 
L 114.072297 124.62369 
L 114.072297 143.913002 
L 114.668583 143.913002 
L 114.668583 100.512049 
L 115.264868 100.512049 
L 115.264868 131.857182 
L 115.861154 131.857182 
L 115.861154 117.390198 
L 116.45744 117.390198 
L 116.45744 102.923213 
L 117.053726 102.923213 
L 117.053726 143.913002 
L 117.650012 143.913002 
L 117.650012 153.557658 
L 118.246298 153.557658 
L 118.246298 124.62369 
L 118.842583 124.62369 
L 118.842583 112.567869 
L 119.438869 112.567869 
L 119.438869 143.913002 
L 120.035155 143.913002 
L 120.035155 124.62369 
L 120.631441 124.62369 
L 120.631441 119.801362 
L 121.227727 119.801362 
L 121.227727 107.745541 
L 121.824013 107.745541 
L 121.824013 146.324166 
L 122.420299 146.324166 
L 122.420299 143.913002 
L 123.61287 143.913002 
L 123.61287 134.268346 
L 124.209156 134.268346 
L 124.209156 139.090674 
L 124.805442 139.090674 
L 124.805442 127.034854 
L 125.401728 127.034854 
L 125.401728 83.633901 
L 125.998014 83.633901 
L 125.998014 127.034854 
L 126.5943 127.034854 
L 126.5943 139.090674 
L 127.190585 139.090674 
L 127.190585 158.379987 
L 127.786871 158.379987 
L 127.786871 141.501838 
L 128.383157 141.501838 
L 128.383157 139.090674 
L 128.979443 139.090674 
L 128.979443 136.67951 
L 129.575729 136.67951 
L 129.575729 141.501838 
L 130.172015 141.501838 
L 130.172015 165.613479 
L 130.768301 165.613479 
L 130.768301 107.745541 
L 131.364586 107.745541 
L 131.364586 122.212526 
L 131.960872 122.212526 
L 131.960872 139.090674 
L 132.557158 139.090674 
L 132.557158 134.268346 
L 133.153444 134.268346 
L 133.153444 100.512049 
L 133.74973 100.512049 
L 133.74973 151.146494 
L 134.346016 151.146494 
L 134.346016 139.090674 
L 134.942302 139.090674 
L 134.942302 163.202315 
L 135.538587 163.202315 
L 135.538587 141.501838 
L 136.134873 141.501838 
L 136.134873 122.212526 
L 136.731159 122.212526 
L 136.731159 192.136283 
L 137.327445 192.136283 
L 137.327445 124.62369 
L 137.923731 124.62369 
L 137.923731 141.501838 
L 138.520017 141.501838 
L 138.520017 151.146494 
L 139.116302 151.146494 
L 139.116302 160.791151 
L 139.712588 160.791151 
L 139.712588 155.968822 
L 140.308874 155.968822 
L 140.308874 158.379987 
L 140.90516 158.379987 
L 140.90516 148.73533 
L 141.501446 148.73533 
L 141.501446 139.090674 
L 142.097732 139.090674 
L 142.097732 129.446018 
L 142.694018 129.446018 
L 142.694018 153.557658 
L 143.290303 153.557658 
L 143.290303 143.913002 
L 143.886589 143.913002 
L 143.886589 153.557658 
L 144.482875 153.557658 
L 144.482875 129.446018 
L 145.079161 129.446018 
L 145.079161 153.557658 
L 145.675447 153.557658 
L 145.675447 136.67951 
L 146.271733 136.67951 
L 146.271733 134.268346 
L 146.868019 134.268346 
L 146.868019 155.968822 
L 147.464304 155.968822 
L 147.464304 148.73533 
L 148.06059 148.73533 
L 148.06059 134.268346 
L 148.656876 134.268346 
L 148.656876 151.146494 
L 149.253162 151.146494 
L 149.253162 165.613479 
L 149.849448 165.613479 
L 149.849448 136.67951 
L 150.445734 136.67951 
L 150.445734 160.791151 
L 151.04202 160.791151 
L 151.04202 170.435807 
L 151.638305 170.435807 
L 151.638305 155.968822 
L 152.234591 155.968822 
L 152.234591 148.73533 
L 152.830877 148.73533 
L 152.830877 177.669299 
L 153.427163 177.669299 
L 153.427163 136.67951 
L 154.023449 136.67951 
L 154.023449 100.512049 
L 154.619735 100.512049 
L 154.619735 155.968822 
L 155.21602 155.968822 
L 155.21602 134.268346 
L 155.812306 134.268346 
L 155.812306 172.846971 
L 156.408592 172.846971 
L 156.408592 165.613479 
L 157.004878 165.613479 
L 157.004878 172.846971 
L 157.601164 172.846971 
L 157.601164 134.268346 
L 158.19745 134.268346 
L 158.19745 160.791151 
L 158.793736 160.791151 
L 158.793736 146.324166 
L 159.390021 146.324166 
L 159.390021 119.801362 
L 159.986307 119.801362 
L 159.986307 160.791151 
L 160.582593 160.791151 
L 160.582593 151.146494 
L 161.178879 151.146494 
L 161.178879 163.202315 
L 161.775165 163.202315 
L 161.775165 168.024643 
L 162.371451 168.024643 
L 162.371451 148.73533 
L 162.967737 148.73533 
L 162.967737 143.913002 
L 163.564022 143.913002 
L 163.564022 184.902791 
L 164.160308 184.902791 
L 164.160308 168.024643 
L 164.756594 168.024643 
L 164.756594 163.202315 
L 165.35288 163.202315 
L 165.35288 151.146494 
L 165.949166 151.146494 
L 165.949166 158.379987 
L 166.545452 158.379987 
L 166.545452 148.73533 
L 167.141738 148.73533 
L 167.141738 141.501838 
L 167.738023 141.501838 
L 167.738023 124.62369 
L 168.334309 124.62369 
L 168.334309 170.435807 
L 168.930595 170.435807 
L 168.930595 165.613479 
L 169.526881 165.613479 
L 169.526881 148.73533 
L 170.123167 148.73533 
L 170.123167 184.902791 
L 170.719453 184.902791 
L 170.719453 172.846971 
L 171.315738 172.846971 
L 171.315738 148.73533 
L 171.912024 148.73533 
L 171.912024 163.202315 
L 172.50831 163.202315 
L 172.50831 160.791151 
L 173.104596 160.791151 
L 173.104596 158.379987 
L 173.700882 158.379987 
L 173.700882 170.435807 
L 174.297168 170.435807 
L 174.297168 187.313955 
L 174.893454 187.313955 
L 174.893454 199.369776 
L 175.489739 199.369776 
L 175.489739 192.136283 
L 176.086025 192.136283 
L 176.086025 184.902791 
L 176.682311 184.902791 
L 176.682311 165.613479 
L 177.278597 165.613479 
L 177.278597 155.968822 
L 177.874883 155.968822 
L 177.874883 158.379987 
L 178.471169 158.379987 
L 178.471169 170.435807 
L 179.067455 170.435807 
L 179.067455 172.846971 
L 179.66374 172.846971 
L 179.66374 143.913002 
L 180.260026 143.913002 
L 180.260026 177.669299 
L 180.856312 177.669299 
L 180.856312 194.547447 
L 181.452598 194.547447 
L 181.452598 187.313955 
L 182.048884 187.313955 
L 182.048884 182.491627 
L 182.64517 182.491627 
L 182.64517 163.202315 
L 183.241456 163.202315 
L 183.241456 172.846971 
L 183.837741 172.846971 
L 183.837741 199.369776 
L 184.434027 199.369776 
L 184.434027 187.313955 
L 185.030313 187.313955 
L 185.030313 153.557658 
L 185.626599 153.557658 
L 185.626599 165.613479 
L 186.222885 165.613479 
L 186.222885 180.080463 
L 186.819171 180.080463 
L 186.819171 160.791151 
L 187.415456 160.791151 
L 187.415456 170.435807 
L 188.011742 170.435807 
L 188.011742 206.603268 
L 188.608028 206.603268 
L 188.608028 168.024643 
L 189.204314 168.024643 
L 189.204314 155.968822 
L 189.8006 155.968822 
L 189.8006 170.435807 
L 190.993172 170.435807 
L 190.993172 165.613479 
L 191.589457 165.613479 
L 191.589457 175.258135 
L 192.185743 175.258135 
L 192.185743 182.491627 
L 192.782029 182.491627 
L 192.782029 184.902791 
L 193.378315 184.902791 
L 193.378315 187.313955 
L 193.974601 187.313955 
L 193.974601 170.435807 
L 194.570887 170.435807 
L 194.570887 196.958611 
L 195.167173 196.958611 
L 195.167173 201.78094 
L 195.763458 201.78094 
L 195.763458 196.958611 
L 196.359744 196.958611 
L 196.359744 199.369776 
L 196.95603 199.369776 
L 196.95603 184.902791 
L 197.552316 184.902791 
L 197.552316 175.258135 
L 198.148602 175.258135 
L 198.148602 180.080463 
L 198.744888 180.080463 
L 198.744888 192.136283 
L 199.341174 192.136283 
L 199.341174 204.192104 
L 199.937459 204.192104 
L 199.937459 170.435807 
L 200.533745 170.435807 
L 200.533745 172.846971 
L 201.130031 172.846971 
L 201.130031 192.136283 
L 201.726317 192.136283 
L 201.726317 172.846971 
L 202.322603 172.846971 
L 202.322603 187.313955 
L 202.918889 187.313955 
L 202.918889 172.846971 
L 203.515174 172.846971 
L 203.515174 204.192104 
L 204.11146 204.192104 
L 204.11146 182.491627 
L 205.304032 182.491627 
L 205.304032 204.192104 
L 205.900318 204.192104 
L 205.900318 199.369776 
L 206.496604 199.369776 
L 206.496604 194.547447 
L 207.689175 194.547447 
L 207.689175 201.78094 
L 208.285461 201.78094 
L 208.285461 194.547447 
L 208.881747 194.547447 
L 208.881747 146.324166 
L 209.478033 146.324166 
L 209.478033 196.958611 
L 210.074319 196.958611 
L 210.074319 209.014432 
L 210.670605 209.014432 
L 210.670605 216.247924 
L 211.266891 216.247924 
L 211.266891 192.136283 
L 211.863176 192.136283 
L 211.863176 196.958611 
L 212.459462 196.958611 
L 212.459462 204.192104 
L 213.055748 204.192104 
L 213.055748 209.014432 
L 213.652034 209.014432 
L 213.652034 184.902791 
L 214.24832 184.902791 
L 214.24832 199.369776 
L 214.844606 199.369776 
L 214.844606 184.902791 
L 215.440892 184.902791 
L 215.440892 201.78094 
L 216.037177 201.78094 
L 216.037177 213.83676 
L 216.633463 213.83676 
L 216.633463 192.136283 
L 217.229749 192.136283 
L 217.229749 223.481416 
L 217.826035 223.481416 
L 217.826035 187.313955 
L 218.422321 187.313955 
L 218.422321 196.958611 
L 219.018607 196.958611 
L 219.018607 192.136283 
L 219.614892 192.136283 
L 219.614892 199.369776 
L 220.211178 199.369776 
L 220.211178 216.247924 
L 220.807464 216.247924 
L 220.807464 201.78094 
L 221.40375 201.78094 
L 221.40375 209.014432 
L 222.000036 209.014432 
L 222.000036 228.303744 
L 222.596322 228.303744 
L 222.596322 209.014432 
L 223.192608 209.014432 
L 223.192608 230.714908 
L 223.788893 230.714908 
L 223.788893 223.481416 
L 224.385179 223.481416 
L 224.385179 211.425596 
L 224.981465 211.425596 
L 224.981465 230.714908 
L 225.577751 230.714908 
L 225.577751 228.303744 
L 226.174037 228.303744 
L 226.174037 230.714908 
L 226.770323 230.714908 
L 226.770323 221.070252 
L 227.962894 221.070252 
L 227.962894 216.247924 
L 228.55918 216.247924 
L 228.55918 221.070252 
L 229.155466 221.070252 
L 229.155466 213.83676 
L 229.751752 213.83676 
L 229.751752 228.303744 
L 230.348038 228.303744 
L 230.348038 213.83676 
L 231.54061 213.83676 
L 231.54061 218.659088 
L 232.136895 218.659088 
L 232.136895 225.89258 
L 232.733181 225.89258 
L 232.733181 223.481416 
L 233.329467 223.481416 
L 233.329467 230.714908 
L 233.925753 230.714908 
L 233.925753 245.181893 
L 234.522039 245.181893 
L 234.522039 230.714908 
L 235.118325 230.714908 
L 235.118325 230.714908 
" clip-path="url(#pda65b02490)" style="fill: none; stroke: #1f77b4; stroke-width: 1.5; stroke-linecap: square"/>
   </g>
   <g id="line2d_14">
    <path d="M 240.49308 160.791151 
L 241.090184 160.791151 
L 241.090184 151.146494 
L 241.687289 151.146494 
L 241.687289 148.73533 
L 242.284393 148.73533 
L 242.284393 136.67951 
L 242.881498 136.67951 
L 242.881498 141.501838 
L 243.478602 141.501838 
L 243.478602 129.446018 
L 244.672811 129.446018 
L 244.672811 112.567869 
L 245.269916 112.567869 
L 245.269916 122.212526 
L 245.86702 122.212526 
L 245.86702 64.344588 
L 246.464125 64.344588 
L 246.464125 95.689721 
L 247.06123 95.689721 
L 247.06123 110.156705 
L 247.658334 110.156705 
L 247.658334 93.278557 
L 248.255439 93.278557 
L 248.255439 98.100885 
L 248.852543 98.100885 
L 248.852543 59.52226 
L 249.449648 59.52226 
L 249.449648 66.755752 
L 250.046752 66.755752 
L 250.046752 64.344588 
L 250.643857 64.344588 
L 250.643857 52.288768 
L 251.240961 52.288768 
L 251.240961 37.821784 
L 251.838066 37.821784 
L 251.838066 83.633901 
L 252.43517 83.633901 
L 252.43517 64.344588 
L 253.032275 64.344588 
L 253.032275 81.222737 
L 253.629379 81.222737 
L 253.629379 47.46644 
L 254.226484 47.46644 
L 254.226484 114.979033 
L 254.823589 114.979033 
L 254.823589 86.045065 
L 255.420693 86.045065 
L 255.420693 52.288768 
L 256.017798 52.288768 
L 256.017798 76.400409 
L 256.614902 76.400409 
L 256.614902 18.532471 
L 257.212007 18.532471 
L 257.212007 57.111096 
L 257.809111 57.111096 
L 257.809111 105.334377 
L 258.406216 105.334377 
L 258.406216 45.055276 
L 259.00332 45.055276 
L 259.00332 76.400409 
L 259.600425 76.400409 
L 259.600425 59.52226 
L 260.197529 59.52226 
L 260.197529 81.222737 
L 260.794634 81.222737 
L 260.794634 76.400409 
L 261.391738 76.400409 
L 261.391738 69.166916 
L 261.988843 69.166916 
L 261.988843 112.567869 
L 262.585948 112.567869 
L 262.585948 95.689721 
L 263.183052 95.689721 
L 263.183052 64.344588 
L 263.780157 64.344588 
L 263.780157 83.633901 
L 264.377261 83.633901 
L 264.377261 54.699932 
L 264.974366 54.699932 
L 264.974366 107.745541 
L 265.57147 107.745541 
L 265.57147 93.278557 
L 266.168575 93.278557 
L 266.168575 95.689721 
L 266.765679 95.689721 
L 266.765679 102.923213 
L 267.362784 102.923213 
L 267.362784 86.045065 
L 267.959888 86.045065 
L 267.959888 105.334377 
L 268.556993 105.334377 
L 268.556993 95.689721 
L 269.154098 95.689721 
L 269.154098 76.400409 
L 269.751202 76.400409 
L 269.751202 100.512049 
L 270.348307 100.512049 
L 270.348307 117.390198 
L 270.945411 117.390198 
L 270.945411 57.111096 
L 271.542516 57.111096 
L 271.542516 83.633901 
L 272.13962 83.633901 
L 272.13962 110.156705 
L 272.736725 110.156705 
L 272.736725 78.811573 
L 273.333829 78.811573 
L 273.333829 114.979033 
L 273.930934 114.979033 
L 273.930934 100.512049 
L 274.528038 100.512049 
L 274.528038 83.633901 
L 275.125143 83.633901 
L 275.125143 64.344588 
L 275.722247 64.344588 
L 275.722247 78.811573 
L 276.319352 78.811573 
L 276.319352 93.278557 
L 276.916457 93.278557 
L 276.916457 86.045065 
L 277.513561 86.045065 
L 277.513561 76.400409 
L 278.110666 76.400409 
L 278.110666 88.456229 
L 278.70777 88.456229 
L 278.70777 114.979033 
L 279.304875 114.979033 
L 279.304875 88.456229 
L 279.901979 88.456229 
L 279.901979 102.923213 
L 280.499084 102.923213 
L 280.499084 119.801362 
L 281.096188 119.801362 
L 281.096188 98.100885 
L 281.693293 98.100885 
L 281.693293 119.801362 
L 282.290397 119.801362 
L 282.290397 78.811573 
L 282.887502 78.811573 
L 282.887502 114.979033 
L 283.484607 114.979033 
L 283.484607 102.923213 
L 284.081711 102.923213 
L 284.081711 107.745541 
L 284.678816 107.745541 
L 284.678816 102.923213 
L 285.27592 102.923213 
L 285.27592 93.278557 
L 285.873025 93.278557 
L 285.873025 124.62369 
L 286.470129 124.62369 
L 286.470129 90.867393 
L 287.067234 90.867393 
L 287.067234 136.67951 
L 287.664338 136.67951 
L 287.664338 122.212526 
L 288.261443 122.212526 
L 288.261443 71.57808 
L 288.858547 71.57808 
L 288.858547 112.567869 
L 289.455652 112.567869 
L 289.455652 105.334377 
L 290.649861 105.334377 
L 290.649861 93.278557 
L 291.246966 93.278557 
L 291.246966 131.857182 
L 291.84407 131.857182 
L 291.84407 86.045065 
L 292.441175 86.045065 
L 292.441175 110.156705 
L 293.038279 110.156705 
L 293.038279 131.857182 
L 293.635384 131.857182 
L 293.635384 122.212526 
L 294.232488 122.212526 
L 294.232488 107.745541 
L 294.829593 107.745541 
L 294.829593 143.913002 
L 295.426697 143.913002 
L 295.426697 107.745541 
L 296.023802 107.745541 
L 296.023802 110.156705 
L 296.620906 110.156705 
L 296.620906 83.633901 
L 297.218011 83.633901 
L 297.218011 129.446018 
L 297.815115 129.446018 
L 297.815115 86.045065 
L 298.41222 86.045065 
L 298.41222 139.090674 
L 299.009325 139.090674 
L 299.009325 95.689721 
L 299.606429 95.689721 
L 299.606429 134.268346 
L 300.203534 134.268346 
L 300.203534 117.390198 
L 300.800638 117.390198 
L 300.800638 81.222737 
L 301.397743 81.222737 
L 301.397743 136.67951 
L 301.994847 136.67951 
L 301.994847 112.567869 
L 302.591952 112.567869 
L 302.591952 95.689721 
L 303.189056 95.689721 
L 303.189056 136.67951 
L 303.786161 136.67951 
L 303.786161 127.034854 
L 304.98037 127.034854 
L 304.98037 143.913002 
L 305.577475 143.913002 
L 305.577475 151.146494 
L 306.174579 151.146494 
L 306.174579 117.390198 
L 306.771684 117.390198 
L 306.771684 127.034854 
L 307.368788 127.034854 
L 307.368788 148.73533 
L 307.965893 148.73533 
L 307.965893 129.446018 
L 308.562997 129.446018 
L 308.562997 114.979033 
L 309.160102 114.979033 
L 309.160102 151.146494 
L 309.757206 151.146494 
L 309.757206 114.979033 
L 310.354311 114.979033 
L 310.354311 139.090674 
L 310.951415 139.090674 
L 310.951415 107.745541 
L 311.54852 107.745541 
L 311.54852 134.268346 
L 312.145624 134.268346 
L 312.145624 107.745541 
L 312.742729 107.745541 
L 312.742729 141.501838 
L 313.339834 141.501838 
L 313.339834 153.557658 
L 313.936938 153.557658 
L 313.936938 163.202315 
L 314.534043 163.202315 
L 314.534043 141.501838 
L 315.131147 141.501838 
L 315.131147 155.968822 
L 315.728252 155.968822 
L 315.728252 143.913002 
L 316.325356 143.913002 
L 316.325356 148.73533 
L 316.922461 148.73533 
L 316.922461 139.090674 
L 317.519565 139.090674 
L 317.519565 155.968822 
L 318.11667 155.968822 
L 318.11667 105.334377 
L 318.713774 105.334377 
L 318.713774 127.034854 
L 319.310879 127.034854 
L 319.310879 119.801362 
L 320.505088 119.801362 
L 320.505088 112.567869 
L 321.102193 112.567869 
L 321.102193 146.324166 
L 321.699297 146.324166 
L 321.699297 139.090674 
L 322.296402 139.090674 
L 322.296402 112.567869 
L 322.893506 112.567869 
L 322.893506 105.334377 
L 323.490611 105.334377 
L 323.490611 141.501838 
L 324.087715 141.501838 
L 324.087715 124.62369 
L 324.68482 124.62369 
L 324.68482 136.67951 
L 325.281924 136.67951 
L 325.281924 139.090674 
L 325.879029 139.090674 
L 325.879029 172.846971 
L 326.476133 172.846971 
L 326.476133 163.202315 
L 327.073238 163.202315 
L 327.073238 129.446018 
L 327.670343 129.446018 
L 327.670343 134.268346 
L 328.267447 134.268346 
L 328.267447 141.501838 
L 328.864552 141.501838 
L 328.864552 119.801362 
L 329.461656 119.801362 
L 329.461656 134.268346 
L 330.058761 134.268346 
L 330.058761 158.379987 
L 330.655865 158.379987 
L 330.655865 163.202315 
L 331.25297 163.202315 
L 331.25297 158.379987 
L 331.850074 158.379987 
L 331.850074 146.324166 
L 332.447179 146.324166 
L 332.447179 153.557658 
L 333.641388 153.557658 
L 333.641388 177.669299 
L 334.238493 177.669299 
L 334.238493 146.324166 
L 334.835597 146.324166 
L 334.835597 129.446018 
L 335.432702 129.446018 
L 335.432702 136.67951 
L 336.029806 136.67951 
L 336.029806 141.501838 
L 336.626911 141.501838 
L 336.626911 158.379987 
L 337.224015 158.379987 
L 337.224015 119.801362 
L 337.82112 119.801362 
L 337.82112 184.902791 
L 338.418224 184.902791 
L 338.418224 180.080463 
L 339.015329 180.080463 
L 339.015329 165.613479 
L 339.612433 165.613479 
L 339.612433 175.258135 
L 340.209538 175.258135 
L 340.209538 151.146494 
L 340.806642 151.146494 
L 340.806642 155.968822 
L 341.403747 155.968822 
L 341.403747 180.080463 
L 342.000852 180.080463 
L 342.000852 165.613479 
L 342.597956 165.613479 
L 342.597956 160.791151 
L 343.195061 160.791151 
L 343.195061 146.324166 
L 343.792165 146.324166 
L 343.792165 175.258135 
L 344.38927 175.258135 
L 344.38927 158.379987 
L 344.986374 158.379987 
L 344.986374 148.73533 
L 345.583479 148.73533 
L 345.583479 163.202315 
L 346.180583 163.202315 
L 346.180583 153.557658 
L 346.777688 153.557658 
L 346.777688 163.202315 
L 347.374792 163.202315 
L 347.374792 155.968822 
L 347.971897 155.968822 
L 347.971897 148.73533 
L 348.569001 148.73533 
L 348.569001 155.968822 
L 349.166106 155.968822 
L 349.166106 151.146494 
L 349.763211 151.146494 
L 349.763211 184.902791 
L 350.360315 184.902791 
L 350.360315 163.202315 
L 350.95742 163.202315 
L 350.95742 139.090674 
L 351.554524 139.090674 
L 351.554524 175.258135 
L 352.151629 175.258135 
L 352.151629 131.857182 
L 352.748733 131.857182 
L 352.748733 182.491627 
L 353.345838 182.491627 
L 353.345838 168.024643 
L 353.942942 168.024643 
L 353.942942 153.557658 
L 354.540047 153.557658 
L 354.540047 182.491627 
L 355.137151 182.491627 
L 355.137151 177.669299 
L 355.734256 177.669299 
L 355.734256 170.435807 
L 356.331361 170.435807 
L 356.331361 175.258135 
L 356.928465 175.258135 
L 356.928465 158.379987 
L 357.52557 158.379987 
L 357.52557 165.613479 
L 358.122674 165.613479 
L 358.122674 151.146494 
L 358.719779 151.146494 
L 358.719779 153.557658 
L 359.316883 153.557658 
L 359.316883 168.024643 
L 359.913988 168.024643 
L 359.913988 151.146494 
L 360.511092 151.146494 
L 360.511092 163.202315 
L 361.108197 163.202315 
L 361.108197 182.491627 
L 361.705301 182.491627 
L 361.705301 194.547447 
L 362.302406 194.547447 
L 362.302406 189.725119 
L 362.89951 189.725119 
L 362.89951 168.024643 
L 363.496615 168.024643 
L 363.496615 172.846971 
L 364.09372 172.846971 
L 364.09372 155.968822 
L 364.690824 155.968822 
L 364.690824 177.669299 
L 365.287929 177.669299 
L 365.287929 172.846971 
L 365.885033 172.846971 
L 365.885033 194.547447 
L 366.482138 194.547447 
L 366.482138 175.258135 
L 367.079242 175.258135 
L 367.079242 170.435807 
L 367.676347 170.435807 
L 367.676347 187.313955 
L 368.273451 187.313955 
L 368.273451 170.435807 
L 368.870556 170.435807 
L 368.870556 187.313955 
L 369.46766 187.313955 
L 369.46766 160.791151 
L 370.064765 160.791151 
L 370.064765 158.379987 
L 370.66187 158.379987 
L 370.66187 177.669299 
L 371.258974 177.669299 
L 371.258974 175.258135 
L 371.856079 175.258135 
L 371.856079 180.080463 
L 372.453183 180.080463 
L 372.453183 189.725119 
L 373.050288 189.725119 
L 373.050288 165.613479 
L 373.647392 165.613479 
L 373.647392 187.313955 
L 374.244497 187.313955 
L 374.244497 192.136283 
L 374.841601 192.136283 
L 374.841601 187.313955 
L 375.438706 187.313955 
L 375.438706 184.902791 
L 376.03581 184.902791 
L 376.03581 175.258135 
L 376.632915 175.258135 
L 376.632915 189.725119 
L 377.827124 189.725119 
L 377.827124 199.369776 
L 378.424229 199.369776 
L 378.424229 165.613479 
L 379.618438 165.613479 
L 379.618438 172.846971 
L 380.215542 172.846971 
L 380.215542 175.258135 
L 380.812647 175.258135 
L 380.812647 158.379987 
L 381.409751 158.379987 
L 381.409751 170.435807 
L 382.006856 170.435807 
L 382.006856 199.369776 
L 382.60396 199.369776 
L 382.60396 194.547447 
L 383.201065 194.547447 
L 383.201065 180.080463 
L 383.798169 180.080463 
L 383.798169 192.136283 
L 384.395274 192.136283 
L 384.395274 170.435807 
L 384.992378 170.435807 
L 384.992378 199.369776 
L 385.589483 199.369776 
L 385.589483 177.669299 
L 386.186588 177.669299 
L 386.186588 175.258135 
L 386.783692 175.258135 
L 386.783692 177.669299 
L 387.380797 177.669299 
L 387.380797 170.435807 
L 387.977901 170.435807 
L 387.977901 192.136283 
L 388.575006 192.136283 
L 388.575006 209.014432 
L 389.17211 209.014432 
L 389.17211 182.491627 
L 389.769215 182.491627 
L 389.769215 187.313955 
L 390.366319 187.313955 
L 390.366319 180.080463 
L 390.963424 180.080463 
L 390.963424 206.603268 
L 391.560528 206.603268 
L 391.560528 189.725119 
L 392.157633 189.725119 
L 392.157633 194.547447 
L 392.754738 194.547447 
L 392.754738 189.725119 
L 393.351842 189.725119 
L 393.351842 211.425596 
L 393.948947 211.425596 
L 393.948947 194.547447 
L 394.546051 194.547447 
L 394.546051 182.491627 
L 395.143156 182.491627 
L 395.143156 192.136283 
L 396.337365 192.136283 
L 396.337365 211.425596 
L 397.531574 211.425596 
L 397.531574 189.725119 
L 398.128678 189.725119 
L 398.128678 213.83676 
L 398.725783 213.83676 
L 398.725783 225.89258 
L 399.322887 225.89258 
L 399.322887 206.603268 
L 399.919992 206.603268 
L 399.919992 218.659088 
L 400.517097 218.659088 
L 400.517097 199.369776 
L 401.114201 199.369776 
L 401.114201 211.425596 
L 401.711306 211.425596 
L 401.711306 209.014432 
L 402.30841 209.014432 
L 402.30841 216.247924 
L 402.905515 216.247924 
L 402.905515 209.014432 
L 403.502619 209.014432 
L 403.502619 204.192104 
L 404.099724 204.192104 
L 404.099724 223.481416 
L 404.696828 223.481416 
L 404.696828 228.303744 
L 405.293933 228.303744 
L 405.293933 211.425596 
L 405.891037 211.425596 
L 405.891037 189.725119 
L 406.488142 189.725119 
L 406.488142 194.547447 
L 407.085247 194.547447 
L 407.085247 209.014432 
L 407.682351 209.014432 
L 407.682351 233.126072 
L 408.279456 233.126072 
L 408.279456 223.481416 
L 408.87656 223.481416 
L 408.87656 225.89258 
L 409.473665 225.89258 
L 409.473665 204.192104 
L 410.070769 204.192104 
L 410.070769 225.89258 
L 410.667874 225.89258 
L 410.667874 213.83676 
L 411.264978 213.83676 
L 411.264978 216.247924 
L 411.862083 216.247924 
L 411.862083 230.714908 
L 412.459187 230.714908 
L 412.459187 233.126072 
L 413.056292 233.126072 
L 413.056292 213.83676 
L 413.653396 213.83676 
L 413.653396 209.014432 
L 414.250501 209.014432 
L 414.250501 230.714908 
L 414.847606 230.714908 
L 414.847606 209.014432 
L 415.44471 209.014432 
L 415.44471 240.359565 
L 416.041815 240.359565 
L 416.041815 225.89258 
L 416.638919 225.89258 
L 416.638919 204.192104 
L 417.236024 204.192104 
L 417.236024 223.481416 
L 417.833128 223.481416 
L 417.833128 240.359565 
L 418.430233 240.359565 
L 418.430233 233.126072 
L 419.027337 233.126072 
L 419.027337 242.770729 
L 419.624442 242.770729 
L 419.624442 242.770729 
" clip-path="url(#pda65b02490)" style="fill: none; stroke: #ff7f0e; stroke-width: 1.5; stroke-linecap: square"/>
   </g>
   <g id="patch_3">
    <path d="M 47.288281 256.514364 
L 47.288281 7.2 
" style="fill: none; stroke: #000000; stroke-width: 0.8; stroke-linejoin: miter; stroke-linecap: square"/>
   </g>
   <g id="patch_4">
    <path d="M 428.58101 256.514364 
L 428.58101 7.2 
" style="fill: none; stroke: #000000; stroke-width: 0.8; stroke-linejoin: miter; stroke-linecap: square"/>
   </g>
   <g id="patch_5">
    <path d="M 47.288281 256.514364 
L 428.58101 256.514364 
" style="fill: none; stroke: #000000; stroke-width: 0.8; stroke-linejoin: miter; stroke-linecap: square"/>
   </g>
   <g id="patch_6">
    <path d="M 47.288281 7.2 
L 428.58101 7.2 
" style="fill: none; stroke: #000000; stroke-width: 0.8; stroke-linejoin: miter; stroke-linecap: square"/>
   </g>
   <g id="legend_1">
    <g id="patch_7">
     <path d="M 353.023198 45.201562 
L 421.58101 45.201562 
Q 423.58101 45.201562 423.58101 43.201562 
L 423.58101 14.2 
Q 423.58101 12.2 421.58101 12.2 
L 353.023198 12.2 
Q 351.023198 12.2 351.023198 14.2 
L 351.023198 43.201562 
Q 351.023198 45.201562 353.023198 45.201562 
z
" style="fill: #ffffff; opacity: 0.8; stroke: #cccccc; stroke-linejoin: miter"/>
    </g>
    <g id="line2d_15">
     <path d="M 355.023198 20.298437 
L 355.023198 20.298437 
L 365.023198 20.298437 
L 365.023198 20.298437 
L 375.023198 20.298437 
" style="fill: none; stroke: #1f77b4; stroke-width: 1.5; stroke-linecap: square"/>
    </g>
    <g id="text_15">
     <!-- pulse:0 -->
     <g transform="translate(383.023198 23.798437) scale(0.1 -0.1)">
      <defs>
       <path id="DejaVuSans-53" d="M 1159 525 
L 1159 -1331 
L 581 -1331 
L 581 3500 
L 1159 3500 
L 1159 2969 
Q 1341 3281 1617 3432 
Q 1894 3584 2278 3584 
Q 2916 3584 3314 3078 
Q 3713 2572 3713 1747 
Q 3713 922 3314 415 
Q 2916 -91 2278 -91 
Q 1894 -91 1617 61 
Q 1341 213 1159 525 
z
M 3116 1747 
Q 3116 2381 2855 2742 
Q 2594 3103 2138 3103 
Q 1681 3103 1420 2742 
Q 1159 2381 1159 1747 
Q 1159 1113 1420 752 
Q 1681 391 2138 391 
Q 2594 391 2855 752 
Q 3116 1113 3116 1747 
z
" transform="scale(0.015625)"/>
       <path id="DejaVuSans-4f" d="M 603 4863 
L 1178 4863 
L 1178 0 
L 603 0 
L 603 4863 
z
" transform="scale(0.015625)"/>
       <path id="DejaVuSans-48" d="M 3597 1894 
L 3597 1613 
L 953 1613 
Q 991 1019 1311 708 
Q 1631 397 2203 397 
Q 2534 397 2845 478 
Q 3156 559 3463 722 
L 3463 178 
Q 3153 47 2828 -22 
Q 2503 -91 2169 -91 
Q 1331 -91 842 396 
Q 353 884 353 1716 
Q 353 2575 817 3079 
Q 1281 3584 2069 3584 
Q 2775 3584 3186 3129 
Q 3597 2675 3597 1894 
z
M 3022 2063 
Q 3016 2534 2758 2815 
Q 2500 3097 2075 3097 
Q 1594 3097 1305 2825 
Q 1016 2553 972 2059 
L 3022 2063 
z
" transform="scale(0.015625)"/>
       <path id="DejaVuSans-1d" d="M 750 794 
L 1409 794 
L 1409 0 
L 750 0 
L 750 794 
z
M 750 3309 
L 1409 3309 
L 1409 2516 
L 750 2516 
L 750 3309 
z
" transform="scale(0.015625)"/>
      </defs>
      <use xlink:href="#DejaVuSans-53"/>
      <use xlink:href="#DejaVuSans-58" transform="translate(63.484375 0)"/>
      <use xlink:href="#DejaVuSans-4f" transform="translate(126.859375 0)"/>
      <use xlink:href="#DejaVuSans-56" transform="translate(154.640625 0)"/>
      <use xlink:href="#DejaVuSans-48" transform="translate(206.734375 0)"/>
      <use xlink:href="#DejaVuSans-1d" transform="translate(268.265625 0)"/>
      <use xlink:href="#DejaVuSans-13" transform="translate(301.953125 0)"/>
     </g>
    </g>
    <g id="line2d_16">
     <path d="M 355.023198 35.299219 
L 355.023198 35.299219 
L 365.023198 35.299219 
L 365.023198 35.299219 
L 375.023198 35.299219 
" style="fill: none; stroke: #ff7f0e; stroke-width: 1.5; stroke-linecap: square"/>
    </g>
    <g id="text_16">
     <!-- pulse:1 -->
     <g transform="translate(383.023198 38.799219) scale(0.1 -0.1)">
      <use xlink:href="#DejaVuSans-53"/>
      <use xlink:href="#DejaVuSans-58" transform="translate(63.484375 0)"/>
      <use xlink:href="#DejaVuSans-4f" transform="translate(126.859375 0)"/>
      <use xlink:href="#DejaVuSans-56" transform="translate(154.640625 0)"/>
      <use xlink:href="#DejaVuSans-48" transform="translate(206.734375 0)"/>
      <use xlink:href="#DejaVuSans-1d" transform="translate(268.265625 0)"/>
      <use xlink:href="#DejaVuSans-14" transform="translate(301.953125 0)"/>
     </g>
    </g>
   </g>
  </g>
  <g id="axes_2">
   <g id="patch_8">
    <path d="M 483.906791 256.514364 
L 865.19952 256.514364 
L 865.19952 7.2 
L 483.906791 7.2 
z
" style="fill: #ffffff"/>
   </g>
   <g id="matplotlib.axis_3">
    <g id="xtick_8">
     <g id="line2d_17">
      <g>
       <use xlink:href="#mb36a5cb9f9" x="506.84142" y="256.514364" style="stroke: #000000; stroke-width: 0.8"/>
      </g>
     </g>
     <g id="text_17">
      <!-- 2.50 -->
      <g transform="translate(495.708608 271.11202) scale(0.1 -0.1)">
       <defs>
        <path id="DejaVuSans-11" d="M 684 794 
L 1344 794 
L 1344 0 
L 684 0 
L 684 794 
z
" transform="scale(0.015625)"/>
        <path id="DejaVuSans-18" d="M 691 4666 
L 3169 4666 
L 3169 4134 
L 1269 4134 
L 1269 2991 
Q 1406 3038 1543 3061 
Q 1681 3084 1819 3084 
Q 2600 3084 3056 2656 
Q 3513 2228 3513 1497 
Q 3513 744 3044 326 
Q 2575 -91 1722 -91 
Q 1428 -91 1123 -41 
Q 819 9 494 109 
L 494 744 
Q 775 591 1075 516 
Q 1375 441 1709 441 
Q 2250 441 2565 725 
Q 2881 1009 2881 1497 
Q 2881 1984 2565 2268 
Q 2250 2553 1709 2553 
Q 1456 2553 1204 2497 
Q 953 2441 691 2322 
L 691 4666 
z
" transform="scale(0.015625)"/>
       </defs>
       <use xlink:href="#DejaVuSans-15"/>
       <use xlink:href="#DejaVuSans-11" transform="translate(63.625 0)"/>
       <use xlink:href="#DejaVuSans-18" transform="translate(95.40625 0)"/>
       <use xlink:href="#DejaVuSans-13" transform="translate(159.03125 0)"/>
      </g>
     </g>
    </g>
    <g id="xtick_9">
     <g id="line2d_18">
      <g>
       <use xlink:href="#mb36a5cb9f9" x="555.856854" y="256.514364" style="stroke: #000000; stroke-width: 0.8"/>
      </g>
     </g>
     <g id="text_18">
      <!-- 2.75 -->
      <g transform="translate(544.724041 271.11202) scale(0.1 -0.1)">
       <defs>
        <path id="DejaVuSans-1a" d="M 525 4666 
L 3525 4666 
L 3525 4397 
L 1831 0 
L 1172 0 
L 2766 4134 
L 525 4134 
L 525 4666 
z
" transform="scale(0.015625)"/>
       </defs>
       <use xlink:href="#DejaVuSans-15"/>
       <use xlink:href="#DejaVuSans-11" transform="translate(63.625 0)"/>
       <use xlink:href="#DejaVuSans-1a" transform="translate(95.40625 0)"/>
       <use xlink:href="#DejaVuSans-18" transform="translate(159.03125 0)"/>
      </g>
     </g>
    </g>
    <g id="xtick_10">
     <g id="line2d_19">
      <g>
       <use xlink:href="#mb36a5cb9f9" x="604.872288" y="256.514364" style="stroke: #000000; stroke-width: 0.8"/>
      </g>
     </g>
     <g id="text_19">
      <!-- 3.00 -->
      <g transform="translate(593.739475 271.11202) scale(0.1 -0.1)">
       <defs>
        <path id="DejaVuSans-16" d="M 2597 2516 
Q 3050 2419 3304 2112 
Q 3559 1806 3559 1356 
Q 3559 666 3084 287 
Q 2609 -91 1734 -91 
Q 1441 -91 1130 -33 
Q 819 25 488 141 
L 488 750 
Q 750 597 1062 519 
Q 1375 441 1716 441 
Q 2309 441 2620 675 
Q 2931 909 2931 1356 
Q 2931 1769 2642 2001 
Q 2353 2234 1838 2234 
L 1294 2234 
L 1294 2753 
L 1863 2753 
Q 2328 2753 2575 2939 
Q 2822 3125 2822 3475 
Q 2822 3834 2567 4026 
Q 2313 4219 1838 4219 
Q 1578 4219 1281 4162 
Q 984 4106 628 3988 
L 628 4550 
Q 988 4650 1302 4700 
Q 1616 4750 1894 4750 
Q 2613 4750 3031 4423 
Q 3450 4097 3450 3541 
Q 3450 3153 3228 2886 
Q 3006 2619 2597 2516 
z
" transform="scale(0.015625)"/>
       </defs>
       <use xlink:href="#DejaVuSans-16"/>
       <use xlink:href="#DejaVuSans-11" transform="translate(63.625 0)"/>
       <use xlink:href="#DejaVuSans-13" transform="translate(95.40625 0)"/>
       <use xlink:href="#DejaVuSans-13" transform="translate(159.03125 0)"/>
      </g>
     </g>
    </g>
    <g id="xtick_11">
     <g id="line2d_20">
      <g>
       <use xlink:href="#mb36a5cb9f9" x="653.887722" y="256.514364" style="stroke: #000000; stroke-width: 0.8"/>
      </g>
     </g>
     <g id="text_20">
      <!-- 3.25 -->
      <g transform="translate(642.754909 271.11202) scale(0.1 -0.1)">
       <use xlink:href="#DejaVuSans-16"/>
       <use xlink:href="#DejaVuSans-11" transform="translate(63.625 0)"/>
       <use xlink:href="#DejaVuSans-15" transform="translate(95.40625 0)"/>
       <use xlink:href="#DejaVuSans-18" transform="translate(159.03125 0)"/>
      </g>
     </g>
    </g>
    <g id="xtick_12">
     <g id="line2d_21">
      <g>
       <use xlink:href="#mb36a5cb9f9" x="702.903156" y="256.514364" style="stroke: #000000; stroke-width: 0.8"/>
      </g>
     </g>
     <g id="text_21">
      <!-- 3.50 -->
      <g transform="translate(691.770343 271.11202) scale(0.1 -0.1)">
       <use xlink:href="#DejaVuSans-16"/>
       <use xlink:href="#DejaVuSans-11" transform="translate(63.625 0)"/>
       <use xlink:href="#DejaVuSans-18" transform="translate(95.40625 0)"/>
       <use xlink:href="#DejaVuSans-13" transform="translate(159.03125 0)"/>
      </g>
     </g>
    </g>
    <g id="xtick_13">
     <g id="line2d_22">
      <g>
       <use xlink:href="#mb36a5cb9f9" x="751.918589" y="256.514364" style="stroke: #000000; stroke-width: 0.8"/>
      </g>
     </g>
     <g id="text_22">
      <!-- 3.75 -->
      <g transform="translate(740.785777 271.11202) scale(0.1 -0.1)">
       <use xlink:href="#DejaVuSans-16"/>
       <use xlink:href="#DejaVuSans-11" transform="translate(63.625 0)"/>
       <use xlink:href="#DejaVuSans-1a" transform="translate(95.40625 0)"/>
       <use xlink:href="#DejaVuSans-18" transform="translate(159.03125 0)"/>
      </g>
     </g>
    </g>
    <g id="xtick_14">
     <g id="line2d_23">
      <g>
       <use xlink:href="#mb36a5cb9f9" x="800.934023" y="256.514364" style="stroke: #000000; stroke-width: 0.8"/>
      </g>
     </g>
     <g id="text_23">
      <!-- 4.00 -->
      <g transform="translate(789.801211 271.11202) scale(0.1 -0.1)">
       <use xlink:href="#DejaVuSans-17"/>
       <use xlink:href="#DejaVuSans-11" transform="translate(63.625 0)"/>
       <use xlink:href="#DejaVuSans-13" transform="translate(95.40625 0)"/>
       <use xlink:href="#DejaVuSans-13" transform="translate(159.03125 0)"/>
      </g>
     </g>
    </g>
    <g id="xtick_15">
     <g id="line2d_24">
      <g>
       <use xlink:href="#mb36a5cb9f9" x="849.949457" y="256.514364" style="stroke: #000000; stroke-width: 0.8"/>
      </g>
     </g>
     <g id="text_24">
      <!-- 4.25 -->
      <g transform="translate(838.816645 271.11202) scale(0.1 -0.1)">
       <use xlink:href="#DejaVuSans-17"/>
       <use xlink:href="#DejaVuSans-11" transform="translate(63.625 0)"/>
       <use xlink:href="#DejaVuSans-15" transform="translate(95.40625 0)"/>
       <use xlink:href="#DejaVuSans-18" transform="translate(159.03125 0)"/>
      </g>
     </g>
    </g>
    <g id="text_25">
     <!-- wavelength [Å] -->
     <g transform="translate(636.515656 286.797176) scale(0.1 -0.1)">
      <defs>
       <path id="DejaVuSans-5a" d="M 269 3500 
L 844 3500 
L 1563 769 
L 2278 3500 
L 2956 3500 
L 3675 769 
L 4391 3500 
L 4966 3500 
L 4050 0 
L 3372 0 
L 2619 2869 
L 1863 0 
L 1184 0 
L 269 3500 
z
" transform="scale(0.015625)"/>
       <path id="DejaVuSans-59" d="M 191 3500 
L 800 3500 
L 1894 563 
L 2988 3500 
L 3597 3500 
L 2284 0 
L 1503 0 
L 191 3500 
z
" transform="scale(0.015625)"/>
       <path id="DejaVuSans-4a" d="M 2906 1791 
Q 2906 2416 2648 2759 
Q 2391 3103 1925 3103 
Q 1463 3103 1205 2759 
Q 947 2416 947 1791 
Q 947 1169 1205 825 
Q 1463 481 1925 481 
Q 2391 481 2648 825 
Q 2906 1169 2906 1791 
z
M 3481 434 
Q 3481 -459 3084 -895 
Q 2688 -1331 1869 -1331 
Q 1566 -1331 1297 -1286 
Q 1028 -1241 775 -1147 
L 775 -588 
Q 1028 -725 1275 -790 
Q 1522 -856 1778 -856 
Q 2344 -856 2625 -561 
Q 2906 -266 2906 331 
L 2906 616 
Q 2728 306 2450 153 
Q 2172 0 1784 0 
Q 1141 0 747 490 
Q 353 981 353 1791 
Q 353 2603 747 3093 
Q 1141 3584 1784 3584 
Q 2172 3584 2450 3431 
Q 2728 3278 2906 2969 
L 2906 3500 
L 3481 3500 
L 3481 434 
z
" transform="scale(0.015625)"/>
       <path id="DejaVuSans-4b" d="M 3513 2113 
L 3513 0 
L 2938 0 
L 2938 2094 
Q 2938 2591 2744 2837 
Q 2550 3084 2163 3084 
Q 1697 3084 1428 2787 
Q 1159 2491 1159 1978 
L 1159 0 
L 581 0 
L 581 4863 
L 1159 4863 
L 1159 2956 
Q 1366 3272 1645 3428 
Q 1925 3584 2291 3584 
Q 2894 3584 3203 3211 
Q 3513 2838 3513 2113 
z
" transform="scale(0.015625)"/>
       <path id="DejaVuSans-87" d="M 2663 5081 
Q 2663 5278 2523 5417 
Q 2384 5556 2188 5556 
Q 1988 5556 1852 5420 
Q 1716 5284 1716 5081 
Q 1716 4884 1853 4746 
Q 1991 4609 2188 4609 
Q 2384 4609 2523 4746 
Q 2663 4884 2663 5081 
z
M 2188 4044 
L 1338 1722 
L 3041 1722 
L 2188 4044 
z
M 1716 4366 
Q 1525 4494 1428 4673 
Q 1331 4853 1331 5081 
Q 1331 5441 1579 5691 
Q 1828 5941 2188 5941 
Q 2544 5941 2795 5689 
Q 3047 5438 3047 5081 
Q 3047 4863 2948 4678 
Q 2850 4494 2663 4366 
L 4325 0 
L 3669 0 
L 3244 1197 
L 1141 1197 
L 716 0 
L 50 0 
L 1716 4366 
z
" transform="scale(0.015625)"/>
      </defs>
      <use xlink:href="#DejaVuSans-5a"/>
      <use xlink:href="#DejaVuSans-44" transform="translate(81.78125 0)"/>
      <use xlink:href="#DejaVuSans-59" transform="translate(143.0625 0)"/>
      <use xlink:href="#DejaVuSans-48" transform="translate(202.25 0)"/>
      <use xlink:href="#DejaVuSans-4f" transform="translate(263.78125 0)"/>
      <use xlink:href="#DejaVuSans-48" transform="translate(291.5625 0)"/>
      <use xlink:href="#DejaVuSans-51" transform="translate(353.09375 0)"/>
      <use xlink:href="#DejaVuSans-4a" transform="translate(416.46875 0)"/>
      <use xlink:href="#DejaVuSans-57" transform="translate(479.953125 0)"/>
      <use xlink:href="#DejaVuSans-4b" transform="translate(519.15625 0)"/>
      <use xlink:href="#DejaVuSans-3" transform="translate(582.53125 0)"/>
      <use xlink:href="#DejaVuSans-3e" transform="translate(614.3125 0)"/>
      <use xlink:href="#DejaVuSans-87" transform="translate(653.328125 0)"/>
      <use xlink:href="#DejaVuSans-40" transform="translate(721.734375 0)"/>
     </g>
    </g>
   </g>
   <g id="matplotlib.axis_4">
    <g id="ytick_6">
     <g id="line2d_25">
      <g>
       <use xlink:href="#mfe1dde181f" x="483.906791" y="255.144505" style="stroke: #000000; stroke-width: 0.8"/>
      </g>
     </g>
     <g id="text_26">
      <!-- 0 -->
      <g transform="translate(470.544291 258.943333) scale(0.1 -0.1)">
       <use xlink:href="#DejaVuSans-13"/>
      </g>
     </g>
    </g>
    <g id="ytick_7">
     <g id="line2d_26">
      <g>
       <use xlink:href="#mfe1dde181f" x="483.906791" y="205.331445" style="stroke: #000000; stroke-width: 0.8"/>
      </g>
     </g>
     <g id="text_27">
      <!-- 20 -->
      <g transform="translate(464.181791 209.130273) scale(0.1 -0.1)">
       <use xlink:href="#DejaVuSans-15"/>
       <use xlink:href="#DejaVuSans-13" transform="translate(63.625 0)"/>
      </g>
     </g>
    </g>
    <g id="ytick_8">
     <g id="line2d_27">
      <g>
       <use xlink:href="#mfe1dde181f" x="483.906791" y="155.518385" style="stroke: #000000; stroke-width: 0.8"/>
      </g>
     </g>
     <g id="text_28">
      <!-- 40 -->
      <g transform="translate(464.181791 159.317213) scale(0.1 -0.1)">
       <use xlink:href="#DejaVuSans-17"/>
       <use xlink:href="#DejaVuSans-13" transform="translate(63.625 0)"/>
      </g>
     </g>
    </g>
    <g id="ytick_9">
     <g id="line2d_28">
      <g>
       <use xlink:href="#mfe1dde181f" x="483.906791" y="105.705326" style="stroke: #000000; stroke-width: 0.8"/>
      </g>
     </g>
     <g id="text_29">
      <!-- 60 -->
      <g transform="translate(464.181791 109.504154) scale(0.1 -0.1)">
       <use xlink:href="#DejaVuSans-19"/>
       <use xlink:href="#DejaVuSans-13" transform="translate(63.625 0)"/>
      </g>
     </g>
    </g>
    <g id="ytick_10">
     <g id="line2d_29">
      <g>
       <use xlink:href="#mfe1dde181f" x="483.906791" y="55.892266" style="stroke: #000000; stroke-width: 0.8"/>
      </g>
     </g>
     <g id="text_30">
      <!-- 80 -->
      <g transform="translate(464.181791 59.691094) scale(0.1 -0.1)">
       <use xlink:href="#DejaVuSans-1b"/>
       <use xlink:href="#DejaVuSans-13" transform="translate(63.625 0)"/>
      </g>
     </g>
    </g>
    <g id="text_31">
     <!-- [counts] -->
     <g transform="translate(457.779448 152.469682) rotate(-90) scale(0.1 -0.1)">
      <use xlink:href="#DejaVuSans-3e"/>
      <use xlink:href="#DejaVuSans-46" transform="translate(39.015625 0)"/>
      <use xlink:href="#DejaVuSans-52" transform="translate(94 0)"/>
      <use xlink:href="#DejaVuSans-58" transform="translate(155.1875 0)"/>
      <use xlink:href="#DejaVuSans-51" transform="translate(218.5625 0)"/>
      <use xlink:href="#DejaVuSans-57" transform="translate(281.9375 0)"/>
      <use xlink:href="#DejaVuSans-56" transform="translate(321.140625 0)"/>
      <use xlink:href="#DejaVuSans-40" transform="translate(373.234375 0)"/>
     </g>
    </g>
   </g>
   <g id="line2d_30">
    <path d="M 501.430407 175.443609 
L 502.582649 175.443609 
L 502.582649 113.177284 
L 503.73489 113.177284 
L 503.73489 130.611855 
L 504.887131 130.611855 
L 504.887131 133.102508 
L 506.039372 133.102508 
L 506.039372 120.649243 
L 507.191614 120.649243 
L 507.191614 103.214673 
L 508.343855 103.214673 
L 508.343855 113.177284 
L 509.496096 113.177284 
L 509.496096 78.308143 
L 510.648338 78.308143 
L 510.648338 68.345531 
L 511.800579 68.345531 
L 511.800579 95.742714 
L 512.95282 95.742714 
L 512.95282 65.854878 
L 514.105062 65.854878 
L 514.105062 75.81749 
L 515.257303 75.81749 
L 515.257303 85.780102 
L 516.409544 85.780102 
L 516.409544 100.72402 
L 517.561786 100.72402 
L 517.561786 98.233367 
L 518.714027 98.233367 
L 518.714027 90.761408 
L 519.866268 90.761408 
L 519.866268 70.836184 
L 521.01851 70.836184 
L 521.01851 75.81749 
L 522.170751 75.81749 
L 522.170751 88.270755 
L 523.322992 88.270755 
L 523.322992 103.214673 
L 524.475233 103.214673 
L 524.475233 58.382919 
L 525.627475 58.382919 
L 525.627475 53.401613 
L 526.779716 53.401613 
L 526.779716 21.023124 
L 527.931957 21.023124 
L 527.931957 78.308143 
L 529.084199 78.308143 
L 529.084199 80.798796 
L 530.23644 80.798796 
L 530.23644 53.401613 
L 531.388681 53.401613 
L 531.388681 78.308143 
L 532.540923 78.308143 
L 532.540923 65.854878 
L 533.693164 65.854878 
L 533.693164 48.420307 
L 534.845405 48.420307 
L 534.845405 40.948348 
L 535.997647 40.948348 
L 535.997647 68.345531 
L 537.149888 68.345531 
L 537.149888 60.873572 
L 538.302129 60.873572 
L 538.302129 40.948348 
L 539.45437 40.948348 
L 539.45437 53.401613 
L 540.606612 53.401613 
L 540.606612 110.686632 
L 541.758853 110.686632 
L 541.758853 35.967042 
L 542.911094 35.967042 
L 542.911094 28.495083 
L 544.063336 28.495083 
L 544.063336 85.780102 
L 545.215577 85.780102 
L 545.215577 90.761408 
L 546.367818 90.761408 
L 546.367818 80.798796 
L 547.52006 80.798796 
L 547.52006 100.72402 
L 548.672301 100.72402 
L 548.672301 93.252061 
L 549.824542 93.252061 
L 549.824542 110.686632 
L 550.976784 110.686632 
L 550.976784 100.72402 
L 552.129025 100.72402 
L 552.129025 60.873572 
L 553.281266 60.873572 
L 553.281266 93.252061 
L 554.433507 93.252061 
L 554.433507 78.308143 
L 555.585749 78.308143 
L 555.585749 63.364225 
L 556.73799 63.364225 
L 556.73799 70.836184 
L 557.890231 70.836184 
L 557.890231 100.72402 
L 559.042473 100.72402 
L 559.042473 78.308143 
L 560.194714 78.308143 
L 560.194714 90.761408 
L 561.346955 90.761408 
L 561.346955 105.705326 
L 563.651438 105.705326 
L 563.651438 70.836184 
L 564.803679 70.836184 
L 564.803679 73.326837 
L 565.955921 73.326837 
L 565.955921 80.798796 
L 567.108162 80.798796 
L 567.108162 113.177284 
L 568.260403 113.177284 
L 568.260403 103.214673 
L 569.412645 103.214673 
L 569.412645 80.798796 
L 570.564886 80.798796 
L 570.564886 95.742714 
L 571.717127 95.742714 
L 571.717127 113.177284 
L 572.869368 113.177284 
L 572.869368 100.72402 
L 574.02161 100.72402 
L 574.02161 63.364225 
L 575.173851 63.364225 
L 575.173851 93.252061 
L 576.326092 93.252061 
L 576.326092 73.326837 
L 577.478334 73.326837 
L 577.478334 98.233367 
L 578.630575 98.233367 
L 578.630575 110.686632 
L 579.782816 110.686632 
L 579.782816 118.15859 
L 580.935058 118.15859 
L 580.935058 63.364225 
L 582.087299 63.364225 
L 582.087299 98.233367 
L 583.23954 98.233367 
L 583.23954 113.177284 
L 584.391782 113.177284 
L 584.391782 143.06512 
L 585.544023 143.06512 
L 585.544023 125.630549 
L 586.696264 125.630549 
L 586.696264 105.705326 
L 587.848505 105.705326 
L 587.848505 93.252061 
L 589.000747 93.252061 
L 589.000747 78.308143 
L 590.152988 78.308143 
L 590.152988 118.15859 
L 591.305229 118.15859 
L 591.305229 88.270755 
L 593.609712 88.270755 
L 593.609712 90.761408 
L 594.761953 90.761408 
L 594.761953 105.705326 
L 595.914195 105.705326 
L 595.914195 83.289449 
L 597.066436 83.289449 
L 597.066436 125.630549 
L 598.218677 125.630549 
L 598.218677 135.593161 
L 599.370919 135.593161 
L 599.370919 103.214673 
L 600.52316 103.214673 
L 600.52316 110.686632 
L 601.675401 110.686632 
L 601.675401 123.139896 
L 602.827642 123.139896 
L 602.827642 95.742714 
L 603.979884 95.742714 
L 603.979884 68.345531 
L 605.132125 68.345531 
L 605.132125 148.046426 
L 606.284366 148.046426 
L 606.284366 118.15859 
L 607.436608 118.15859 
L 607.436608 128.121202 
L 608.588849 128.121202 
L 608.588849 90.761408 
L 609.74109 90.761408 
L 609.74109 118.15859 
L 610.893332 118.15859 
L 610.893332 105.705326 
L 612.045573 105.705326 
L 612.045573 118.15859 
L 613.197814 118.15859 
L 613.197814 130.611855 
L 614.350056 130.611855 
L 614.350056 110.686632 
L 615.502297 110.686632 
L 615.502297 115.667937 
L 616.654538 115.667937 
L 616.654538 110.686632 
L 617.80678 110.686632 
L 617.80678 105.705326 
L 618.959021 105.705326 
L 618.959021 128.121202 
L 620.111262 128.121202 
L 620.111262 135.593161 
L 621.263503 135.593161 
L 621.263503 138.083814 
L 622.415745 138.083814 
L 622.415745 93.252061 
L 623.567986 93.252061 
L 623.567986 140.574467 
L 624.720227 140.574467 
L 624.720227 125.630549 
L 625.872469 125.630549 
L 625.872469 100.72402 
L 628.176951 100.72402 
L 628.176951 143.06512 
L 629.329193 143.06512 
L 629.329193 153.027732 
L 630.481434 153.027732 
L 630.481434 118.15859 
L 631.633675 118.15859 
L 631.633675 128.121202 
L 632.785917 128.121202 
L 632.785917 135.593161 
L 633.938158 135.593161 
L 633.938158 113.177284 
L 635.090399 113.177284 
L 635.090399 90.761408 
L 636.24264 90.761408 
L 636.24264 115.667937 
L 637.394882 115.667937 
L 637.394882 128.121202 
L 638.547123 128.121202 
L 638.547123 145.555773 
L 639.699364 145.555773 
L 639.699364 160.499691 
L 640.851606 160.499691 
L 640.851606 128.121202 
L 642.003847 128.121202 
L 642.003847 125.630549 
L 643.156088 125.630549 
L 643.156088 140.574467 
L 644.30833 140.574467 
L 644.30833 158.009038 
L 645.460571 158.009038 
L 645.460571 98.233367 
L 646.612812 98.233367 
L 646.612812 128.121202 
L 647.765054 128.121202 
L 647.765054 115.667937 
L 648.917295 115.667937 
L 648.917295 133.102508 
L 650.069536 133.102508 
L 650.069536 105.705326 
L 651.221777 105.705326 
L 651.221777 133.102508 
L 652.374019 133.102508 
L 652.374019 128.121202 
L 653.52626 128.121202 
L 653.52626 158.009038 
L 654.678501 158.009038 
L 654.678501 128.121202 
L 655.830743 128.121202 
L 655.830743 135.593161 
L 656.982984 135.593161 
L 656.982984 162.990344 
L 658.135225 162.990344 
L 658.135225 148.046426 
L 659.287467 148.046426 
L 659.287467 133.102508 
L 660.439708 133.102508 
L 660.439708 140.574467 
L 661.591949 140.574467 
L 661.591949 145.555773 
L 662.744191 145.555773 
L 662.744191 148.046426 
L 663.896432 148.046426 
L 663.896432 155.518385 
L 665.048673 155.518385 
L 665.048673 145.555773 
L 666.200915 145.555773 
L 666.200915 125.630549 
L 667.353156 125.630549 
L 667.353156 133.102508 
L 668.505397 133.102508 
L 668.505397 155.518385 
L 669.657638 155.518385 
L 669.657638 130.611855 
L 670.80988 130.611855 
L 670.80988 135.593161 
L 671.962121 135.593161 
L 671.962121 133.102508 
L 673.114362 133.102508 
L 673.114362 143.06512 
L 674.266604 143.06512 
L 674.266604 148.046426 
L 675.418845 148.046426 
L 675.418845 120.649243 
L 676.571086 120.649243 
L 676.571086 150.537079 
L 677.723328 150.537079 
L 677.723328 130.611855 
L 678.875569 130.611855 
L 678.875569 135.593161 
L 680.02781 135.593161 
L 680.02781 153.027732 
L 681.180052 153.027732 
L 681.180052 138.083814 
L 682.332293 138.083814 
L 682.332293 153.027732 
L 683.484534 153.027732 
L 683.484534 140.574467 
L 684.636775 140.574467 
L 684.636775 165.480997 
L 685.789017 165.480997 
L 685.789017 162.990344 
L 686.941258 162.990344 
L 686.941258 138.083814 
L 688.093499 138.083814 
L 688.093499 162.990344 
L 689.245741 162.990344 
L 689.245741 128.121202 
L 690.397982 128.121202 
L 690.397982 108.195979 
L 691.550223 108.195979 
L 691.550223 140.574467 
L 692.702465 140.574467 
L 692.702465 135.593161 
L 693.854706 135.593161 
L 693.854706 170.462303 
L 695.006947 170.462303 
L 695.006947 150.537079 
L 696.159189 150.537079 
L 696.159189 180.424915 
L 697.31143 180.424915 
L 697.31143 123.139896 
L 698.463671 123.139896 
L 698.463671 148.046426 
L 699.615912 148.046426 
L 699.615912 145.555773 
L 700.768154 145.555773 
L 700.768154 110.686632 
L 701.920395 110.686632 
L 701.920395 162.990344 
L 703.072636 162.990344 
L 703.072636 140.574467 
L 704.224878 140.574467 
L 704.224878 160.499691 
L 705.377119 160.499691 
L 705.377119 158.009038 
L 706.52936 158.009038 
L 706.52936 148.046426 
L 707.681602 148.046426 
L 707.681602 135.593161 
L 708.833843 135.593161 
L 708.833843 177.934262 
L 709.986084 177.934262 
L 709.986084 170.462303 
L 711.138326 170.462303 
L 711.138326 153.027732 
L 712.290567 153.027732 
L 712.290567 145.555773 
L 713.442808 145.555773 
L 713.442808 153.027732 
L 714.59505 153.027732 
L 714.59505 138.083814 
L 716.899532 138.083814 
L 716.899532 125.630549 
L 718.051773 125.630549 
L 718.051773 165.480997 
L 719.204015 165.480997 
L 719.204015 160.499691 
L 720.356256 160.499691 
L 720.356256 138.083814 
L 721.508497 138.083814 
L 721.508497 175.443609 
L 723.81298 175.443609 
L 723.81298 135.593161 
L 724.965221 135.593161 
L 724.965221 175.443609 
L 726.117463 175.443609 
L 726.117463 145.555773 
L 727.269704 145.555773 
L 727.269704 148.046426 
L 728.421945 148.046426 
L 728.421945 165.480997 
L 729.574187 165.480997 
L 729.574187 177.934262 
L 730.726428 177.934262 
L 730.726428 205.331445 
L 731.878669 205.331445 
L 731.878669 185.406221 
L 733.03091 185.406221 
L 733.03091 172.952956 
L 734.183152 172.952956 
L 734.183152 167.97165 
L 735.335393 167.97165 
L 735.335393 153.027732 
L 736.487634 153.027732 
L 736.487634 150.537079 
L 737.639876 150.537079 
L 737.639876 165.480997 
L 738.792117 165.480997 
L 738.792117 162.990344 
L 739.944358 162.990344 
L 739.944358 138.083814 
L 741.0966 138.083814 
L 741.0966 175.443609 
L 742.248841 175.443609 
L 742.248841 185.406221 
L 744.553324 185.406221 
L 744.553324 180.424915 
L 745.705565 180.424915 
L 745.705565 170.462303 
L 746.857806 170.462303 
L 746.857806 158.009038 
L 748.010047 158.009038 
L 748.010047 187.896874 
L 749.162289 187.896874 
L 749.162289 175.443609 
L 750.31453 175.443609 
L 750.31453 153.027732 
L 751.466771 153.027732 
L 751.466771 165.480997 
L 752.619013 165.480997 
L 752.619013 170.462303 
L 753.771254 170.462303 
L 753.771254 165.480997 
L 756.075737 165.480997 
L 756.075737 195.368833 
L 757.227978 195.368833 
L 757.227978 187.896874 
L 758.380219 187.896874 
L 758.380219 133.102508 
L 759.532461 133.102508 
L 759.532461 160.499691 
L 760.684702 160.499691 
L 760.684702 175.443609 
L 761.836943 175.443609 
L 761.836943 160.499691 
L 762.989185 160.499691 
L 762.989185 165.480997 
L 764.141426 165.480997 
L 764.141426 170.462303 
L 765.293667 170.462303 
L 765.293667 187.896874 
L 766.445908 187.896874 
L 766.445908 180.424915 
L 767.59815 180.424915 
L 767.59815 165.480997 
L 768.750391 165.480997 
L 768.750391 197.859486 
L 769.902632 197.859486 
L 769.902632 192.87818 
L 771.054874 192.87818 
L 771.054874 205.331445 
L 772.207115 205.331445 
L 772.207115 170.462303 
L 773.359356 170.462303 
L 773.359356 192.87818 
L 774.511598 192.87818 
L 774.511598 170.462303 
L 775.663839 170.462303 
L 775.663839 187.896874 
L 776.81608 187.896874 
L 776.81608 172.952956 
L 777.968322 172.952956 
L 777.968322 192.87818 
L 779.120563 192.87818 
L 779.120563 177.934262 
L 780.272804 177.934262 
L 780.272804 162.990344 
L 781.425045 162.990344 
L 781.425045 185.406221 
L 782.577287 185.406221 
L 782.577287 167.97165 
L 783.729528 167.97165 
L 783.729528 180.424915 
L 786.034011 180.424915 
L 786.034011 187.896874 
L 788.338493 187.896874 
L 788.338493 172.952956 
L 789.490735 172.952956 
L 789.490735 202.840792 
L 790.642976 202.840792 
L 790.642976 195.368833 
L 791.795217 195.368833 
L 791.795217 187.896874 
L 792.947459 187.896874 
L 792.947459 192.87818 
L 794.0997 192.87818 
L 794.0997 200.350139 
L 795.251941 200.350139 
L 795.251941 185.406221 
L 796.404182 185.406221 
L 796.404182 145.555773 
L 797.556424 145.555773 
L 797.556424 197.859486 
L 798.708665 197.859486 
L 798.708665 200.350139 
L 799.860906 200.350139 
L 799.860906 212.803404 
L 801.013148 212.803404 
L 801.013148 180.424915 
L 802.165389 180.424915 
L 802.165389 195.368833 
L 803.31763 195.368833 
L 803.31763 202.840792 
L 804.469872 202.840792 
L 804.469872 200.350139 
L 805.622113 200.350139 
L 805.622113 177.934262 
L 806.774354 177.934262 
L 806.774354 205.331445 
L 807.926596 205.331445 
L 807.926596 172.952956 
L 809.078837 172.952956 
L 809.078837 212.803404 
L 810.231078 212.803404 
L 810.231078 195.368833 
L 812.535561 195.368833 
L 812.535561 207.822098 
L 813.687802 207.822098 
L 813.687802 195.368833 
L 814.840043 195.368833 
L 814.840043 187.896874 
L 815.992285 187.896874 
L 815.992285 190.387527 
L 817.144526 190.387527 
L 817.144526 197.859486 
L 818.296767 197.859486 
L 818.296767 205.331445 
L 819.449009 205.331445 
L 819.449009 202.840792 
L 820.60125 202.840792 
L 820.60125 205.331445 
L 821.753491 205.331445 
L 821.753491 225.256669 
L 822.905733 225.256669 
L 822.905733 207.822098 
L 824.057974 207.822098 
L 824.057974 220.275363 
L 825.210215 220.275363 
L 825.210215 215.294057 
L 826.362457 215.294057 
L 826.362457 220.275363 
L 827.514698 220.275363 
L 827.514698 217.78471 
L 828.666939 217.78471 
L 828.666939 220.275363 
L 829.81918 220.275363 
L 829.81918 232.728628 
L 830.971422 232.728628 
L 830.971422 215.294057 
L 832.123663 215.294057 
L 832.123663 225.256669 
L 833.275904 225.256669 
L 833.275904 212.803404 
L 834.428146 212.803404 
L 834.428146 210.312751 
L 835.580387 210.312751 
L 835.580387 217.78471 
L 836.732628 217.78471 
L 836.732628 220.275363 
L 837.88487 220.275363 
L 837.88487 210.312751 
L 839.037111 210.312751 
L 839.037111 212.803404 
L 840.189352 212.803404 
L 840.189352 220.275363 
L 841.341594 220.275363 
L 841.341594 222.766016 
L 842.493835 222.766016 
L 842.493835 215.294057 
L 843.646076 215.294057 
L 843.646076 227.747322 
L 844.798317 227.747322 
L 844.798317 245.181893 
L 845.950559 245.181893 
L 845.950559 227.747322 
L 847.1028 227.747322 
L 847.1028 227.747322 
" clip-path="url(#p09090bb1ef)" style="fill: none; stroke: #1f77b4; stroke-width: 1.5; stroke-linecap: square"/>
   </g>
   <g id="line2d_31">
    <path d="M 501.238279 190.387527 
L 502.393711 190.387527 
L 502.393711 125.630549 
L 503.549144 125.630549 
L 503.549144 177.934262 
L 504.704576 177.934262 
L 504.704576 123.139896 
L 507.015441 123.139896 
L 507.015441 133.102508 
L 508.170874 133.102508 
L 508.170874 115.667937 
L 509.326307 115.667937 
L 509.326307 130.611855 
L 510.481739 130.611855 
L 510.481739 123.139896 
L 511.637172 123.139896 
L 511.637172 45.929654 
L 512.792604 45.929654 
L 512.792604 88.270755 
L 513.948037 88.270755 
L 513.948037 83.289449 
L 515.103469 83.289449 
L 515.103469 108.195979 
L 516.258902 108.195979 
L 516.258902 68.345531 
L 517.414334 68.345531 
L 517.414334 60.873572 
L 518.569767 60.873572 
L 518.569767 80.798796 
L 519.725199 80.798796 
L 519.725199 53.401613 
L 520.880632 53.401613 
L 520.880632 35.967042 
L 522.036064 35.967042 
L 522.036064 23.513777 
L 523.191497 23.513777 
L 523.191497 78.308143 
L 524.346929 78.308143 
L 524.346929 26.00443 
L 525.502362 26.00443 
L 525.502362 93.252061 
L 526.657794 93.252061 
L 526.657794 30.985736 
L 527.813227 30.985736 
L 527.813227 108.195979 
L 528.968659 108.195979 
L 528.968659 93.252061 
L 530.124092 93.252061 
L 530.124092 38.457695 
L 531.279524 38.457695 
L 531.279524 78.308143 
L 532.434957 78.308143 
L 532.434957 18.532471 
L 533.590389 18.532471 
L 533.590389 28.495083 
L 534.745822 28.495083 
L 534.745822 93.252061 
L 535.901254 93.252061 
L 535.901254 45.929654 
L 537.056687 45.929654 
L 537.056687 55.892266 
L 538.212119 55.892266 
L 538.212119 43.439001 
L 539.367552 43.439001 
L 539.367552 78.308143 
L 540.522984 78.308143 
L 540.522984 70.836184 
L 541.678417 70.836184 
L 541.678417 60.873572 
L 542.833849 60.873572 
L 542.833849 85.780102 
L 543.989282 85.780102 
L 543.989282 108.195979 
L 545.144714 108.195979 
L 545.144714 48.420307 
L 546.300147 48.420307 
L 546.300147 73.326837 
L 547.455579 73.326837 
L 547.455579 55.892266 
L 548.611012 55.892266 
L 548.611012 93.252061 
L 549.766444 93.252061 
L 549.766444 85.780102 
L 550.921877 85.780102 
L 550.921877 90.761408 
L 553.232742 90.761408 
L 553.232742 98.233367 
L 554.388174 98.233367 
L 554.388174 83.289449 
L 555.543607 83.289449 
L 555.543607 85.780102 
L 556.699039 85.780102 
L 556.699039 80.798796 
L 557.854472 80.798796 
L 557.854472 88.270755 
L 559.009904 88.270755 
L 559.009904 98.233367 
L 560.165337 98.233367 
L 560.165337 60.873572 
L 561.32077 60.873572 
L 561.32077 63.364225 
L 562.476202 63.364225 
L 562.476202 95.742714 
L 563.631635 95.742714 
L 563.631635 83.289449 
L 564.787067 83.289449 
L 564.787067 113.177284 
L 565.9425 113.177284 
L 565.9425 88.270755 
L 567.097932 88.270755 
L 567.097932 65.854878 
L 568.253365 65.854878 
L 568.253365 73.326837 
L 569.408797 73.326837 
L 569.408797 60.873572 
L 570.56423 60.873572 
L 570.56423 75.81749 
L 571.719662 75.81749 
L 571.719662 83.289449 
L 572.875095 83.289449 
L 572.875095 58.382919 
L 574.030527 58.382919 
L 574.030527 90.761408 
L 575.18596 90.761408 
L 575.18596 103.214673 
L 576.341392 103.214673 
L 576.341392 85.780102 
L 578.652257 85.780102 
L 578.652257 120.649243 
L 579.80769 120.649243 
L 579.80769 85.780102 
L 580.963122 85.780102 
L 580.963122 128.121202 
L 582.118555 128.121202 
L 582.118555 73.326837 
L 583.273987 73.326837 
L 583.273987 83.289449 
L 584.42942 83.289449 
L 584.42942 100.72402 
L 586.740285 100.72402 
L 586.740285 105.705326 
L 587.895717 105.705326 
L 587.895717 80.798796 
L 589.05115 80.798796 
L 589.05115 120.649243 
L 590.206582 120.649243 
L 590.206582 88.270755 
L 591.362015 88.270755 
L 591.362015 118.15859 
L 592.517447 118.15859 
L 592.517447 113.177284 
L 593.67288 113.177284 
L 593.67288 78.308143 
L 594.828312 78.308143 
L 594.828312 103.214673 
L 595.983745 103.214673 
L 595.983745 85.780102 
L 597.139177 85.780102 
L 597.139177 103.214673 
L 598.29461 103.214673 
L 598.29461 95.742714 
L 599.450042 95.742714 
L 599.450042 103.214673 
L 600.605475 103.214673 
L 600.605475 85.780102 
L 601.760907 85.780102 
L 601.760907 108.195979 
L 602.91634 108.195979 
L 602.91634 120.649243 
L 605.227205 120.649243 
L 605.227205 103.214673 
L 606.382637 103.214673 
L 606.382637 120.649243 
L 607.53807 120.649243 
L 607.53807 103.214673 
L 608.693502 103.214673 
L 608.693502 105.705326 
L 609.848935 105.705326 
L 609.848935 85.780102 
L 611.004368 85.780102 
L 611.004368 108.195979 
L 612.1598 108.195979 
L 612.1598 95.742714 
L 613.315233 95.742714 
L 613.315233 125.630549 
L 614.470665 125.630549 
L 614.470665 90.761408 
L 615.626098 90.761408 
L 615.626098 133.102508 
L 616.78153 133.102508 
L 616.78153 98.233367 
L 617.936963 98.233367 
L 617.936963 75.81749 
L 619.092395 75.81749 
L 619.092395 133.102508 
L 620.247828 133.102508 
L 620.247828 108.195979 
L 621.40326 108.195979 
L 621.40326 95.742714 
L 622.558693 95.742714 
L 622.558693 115.667937 
L 624.869558 115.667937 
L 624.869558 133.102508 
L 626.02499 133.102508 
L 626.02499 123.139896 
L 627.180423 123.139896 
L 627.180423 140.574467 
L 628.335855 140.574467 
L 628.335855 128.121202 
L 629.491288 128.121202 
L 629.491288 120.649243 
L 630.64672 120.649243 
L 630.64672 138.083814 
L 631.802153 138.083814 
L 631.802153 133.102508 
L 632.957585 133.102508 
L 632.957585 95.742714 
L 634.113018 95.742714 
L 634.113018 162.990344 
L 635.26845 162.990344 
L 635.26845 90.761408 
L 636.423883 90.761408 
L 636.423883 135.593161 
L 637.579315 135.593161 
L 637.579315 108.195979 
L 638.734748 108.195979 
L 638.734748 128.121202 
L 639.89018 128.121202 
L 639.89018 100.72402 
L 641.045613 100.72402 
L 641.045613 123.139896 
L 642.201045 123.139896 
L 642.201045 145.555773 
L 643.356478 145.555773 
L 643.356478 153.027732 
L 645.667343 153.027732 
L 645.667343 150.537079 
L 646.822775 150.537079 
L 646.822775 133.102508 
L 647.978208 133.102508 
L 647.978208 143.06512 
L 649.13364 143.06512 
L 649.13364 125.630549 
L 650.289073 125.630549 
L 650.289073 155.518385 
L 651.444505 155.518385 
L 651.444505 100.72402 
L 652.599938 100.72402 
L 652.599938 125.630549 
L 653.75537 125.630549 
L 653.75537 110.686632 
L 654.910803 110.686632 
L 654.910803 113.177284 
L 656.066235 113.177284 
L 656.066235 110.686632 
L 657.221668 110.686632 
L 657.221668 135.593161 
L 658.3771 135.593161 
L 658.3771 128.121202 
L 659.532533 128.121202 
L 659.532533 95.742714 
L 660.687965 95.742714 
L 660.687965 103.214673 
L 661.843398 103.214673 
L 661.843398 148.046426 
L 662.998831 148.046426 
L 662.998831 110.686632 
L 664.154263 110.686632 
L 664.154263 133.102508 
L 665.309696 133.102508 
L 665.309696 135.593161 
L 666.465128 135.593161 
L 666.465128 160.499691 
L 667.620561 160.499691 
L 667.620561 158.009038 
L 668.775993 158.009038 
L 668.775993 115.667937 
L 669.931426 115.667937 
L 669.931426 133.102508 
L 671.086858 133.102508 
L 671.086858 130.611855 
L 672.242291 130.611855 
L 672.242291 113.177284 
L 673.397723 113.177284 
L 673.397723 130.611855 
L 674.553156 130.611855 
L 674.553156 155.518385 
L 675.708588 155.518385 
L 675.708588 165.480997 
L 676.864021 165.480997 
L 676.864021 135.593161 
L 678.019453 135.593161 
L 678.019453 140.574467 
L 679.174886 140.574467 
L 679.174886 162.990344 
L 680.330318 162.990344 
L 680.330318 155.518385 
L 681.485751 155.518385 
L 681.485751 158.009038 
L 682.641183 158.009038 
L 682.641183 150.537079 
L 683.796616 150.537079 
L 683.796616 113.177284 
L 684.952048 113.177284 
L 684.952048 140.574467 
L 686.107481 140.574467 
L 686.107481 130.611855 
L 687.262913 130.611855 
L 687.262913 145.555773 
L 688.418346 145.555773 
L 688.418346 113.177284 
L 689.573778 113.177284 
L 689.573778 190.387527 
L 690.729211 190.387527 
L 690.729211 172.952956 
L 691.884643 172.952956 
L 691.884643 150.537079 
L 693.040076 150.537079 
L 693.040076 175.443609 
L 694.195508 175.443609 
L 694.195508 135.593161 
L 695.350941 135.593161 
L 695.350941 167.97165 
L 696.506373 167.97165 
L 696.506373 162.990344 
L 697.661806 162.990344 
L 697.661806 165.480997 
L 698.817238 165.480997 
L 698.817238 155.518385 
L 699.972671 155.518385 
L 699.972671 143.06512 
L 701.128103 143.06512 
L 701.128103 160.499691 
L 702.283536 160.499691 
L 702.283536 148.046426 
L 703.438968 148.046426 
L 703.438968 153.027732 
L 704.594401 153.027732 
L 704.594401 162.990344 
L 705.749833 162.990344 
L 705.749833 143.06512 
L 706.905266 143.06512 
L 706.905266 165.480997 
L 708.060698 165.480997 
L 708.060698 135.593161 
L 709.216131 135.593161 
L 709.216131 148.046426 
L 711.526996 148.046426 
L 711.526996 153.027732 
L 712.682429 153.027732 
L 712.682429 167.97165 
L 713.837861 167.97165 
L 713.837861 165.480997 
L 714.993294 165.480997 
L 714.993294 140.574467 
L 716.148726 140.574467 
L 716.148726 167.97165 
L 717.304159 167.97165 
L 717.304159 118.15859 
L 718.459591 118.15859 
L 718.459591 185.406221 
L 719.615024 185.406221 
L 719.615024 170.462303 
L 720.770456 170.462303 
L 720.770456 140.574467 
L 721.925889 140.574467 
L 721.925889 180.424915 
L 723.081321 180.424915 
L 723.081321 155.518385 
L 724.236754 155.518385 
L 724.236754 167.97165 
L 725.392186 167.97165 
L 725.392186 180.424915 
L 726.547619 180.424915 
L 726.547619 148.046426 
L 727.703051 148.046426 
L 727.703051 158.009038 
L 728.858484 158.009038 
L 728.858484 145.555773 
L 730.013916 145.555773 
L 730.013916 155.518385 
L 731.169349 155.518385 
L 731.169349 158.009038 
L 732.324781 158.009038 
L 732.324781 135.593161 
L 733.480214 135.593161 
L 733.480214 172.952956 
L 734.635646 172.952956 
L 734.635646 177.934262 
L 735.791079 177.934262 
L 735.791079 190.387527 
L 736.946511 190.387527 
L 736.946511 187.896874 
L 738.101944 187.896874 
L 738.101944 153.027732 
L 739.257376 153.027732 
L 739.257376 165.480997 
L 740.412809 165.480997 
L 740.412809 158.009038 
L 741.568241 158.009038 
L 741.568241 167.97165 
L 743.879106 167.97165 
L 743.879106 190.387527 
L 745.034539 190.387527 
L 745.034539 172.952956 
L 746.189971 172.952956 
L 746.189971 165.480997 
L 747.345404 165.480997 
L 747.345404 185.406221 
L 748.500836 185.406221 
L 748.500836 170.462303 
L 749.656269 170.462303 
L 749.656269 175.443609 
L 750.811701 175.443609 
L 750.811701 160.499691 
L 751.967134 160.499691 
L 751.967134 148.046426 
L 753.122566 148.046426 
L 753.122566 172.952956 
L 754.277999 172.952956 
L 754.277999 170.462303 
L 755.433431 170.462303 
L 755.433431 177.934262 
L 756.588864 177.934262 
L 756.588864 175.443609 
L 757.744296 175.443609 
L 757.744296 162.990344 
L 758.899729 162.990344 
L 758.899729 190.387527 
L 760.055161 190.387527 
L 760.055161 187.896874 
L 761.210594 187.896874 
L 761.210594 172.952956 
L 762.366026 172.952956 
L 762.366026 182.915568 
L 763.521459 182.915568 
L 763.521459 180.424915 
L 764.676892 180.424915 
L 764.676892 170.462303 
L 765.832324 170.462303 
L 765.832324 195.368833 
L 766.987757 195.368833 
L 766.987757 190.387527 
L 768.143189 190.387527 
L 768.143189 155.518385 
L 769.298622 155.518385 
L 769.298622 170.462303 
L 771.609487 170.462303 
L 771.609487 160.499691 
L 772.764919 160.499691 
L 772.764919 155.518385 
L 773.920352 155.518385 
L 773.920352 180.424915 
L 775.075784 180.424915 
L 775.075784 190.387527 
L 776.231217 190.387527 
L 776.231217 180.424915 
L 777.386649 180.424915 
L 777.386649 187.896874 
L 778.542082 187.896874 
L 778.542082 170.462303 
L 779.697514 170.462303 
L 779.697514 175.443609 
L 780.852947 175.443609 
L 780.852947 195.368833 
L 782.008379 195.368833 
L 782.008379 162.990344 
L 783.163812 162.990344 
L 783.163812 182.915568 
L 784.319244 182.915568 
L 784.319244 165.480997 
L 785.474677 165.480997 
L 785.474677 170.462303 
L 786.630109 170.462303 
L 786.630109 190.387527 
L 787.785542 190.387527 
L 787.785542 200.350139 
L 788.940974 200.350139 
L 788.940974 180.424915 
L 790.096407 180.424915 
L 790.096407 175.443609 
L 791.251839 175.443609 
L 791.251839 190.387527 
L 792.407272 190.387527 
L 792.407272 180.424915 
L 793.562704 180.424915 
L 793.562704 195.368833 
L 794.718137 195.368833 
L 794.718137 192.87818 
L 795.873569 192.87818 
L 795.873569 182.915568 
L 797.029002 182.915568 
L 797.029002 205.331445 
L 798.184434 205.331445 
L 798.184434 200.350139 
L 799.339867 200.350139 
L 799.339867 177.934262 
L 801.650732 177.934262 
L 801.650732 202.840792 
L 802.806164 202.840792 
L 802.806164 200.350139 
L 803.961597 200.350139 
L 803.961597 192.87818 
L 805.117029 192.87818 
L 805.117029 197.859486 
L 806.272462 197.859486 
L 806.272462 220.275363 
L 807.427894 220.275363 
L 807.427894 207.822098 
L 808.583327 207.822098 
L 808.583327 210.312751 
L 809.738759 210.312751 
L 809.738759 205.331445 
L 810.894192 205.331445 
L 810.894192 202.840792 
L 812.049624 202.840792 
L 812.049624 212.803404 
L 813.205057 212.803404 
L 813.205057 210.312751 
L 814.36049 210.312751 
L 814.36049 202.840792 
L 815.515922 202.840792 
L 815.515922 210.312751 
L 816.671355 210.312751 
L 816.671355 200.350139 
L 817.826787 200.350139 
L 817.826787 212.803404 
L 818.98222 212.803404 
L 818.98222 230.237975 
L 820.137652 230.237975 
L 820.137652 202.840792 
L 821.293085 202.840792 
L 821.293085 175.443609 
L 822.448517 175.443609 
L 822.448517 200.350139 
L 823.60395 200.350139 
L 823.60395 217.78471 
L 824.759382 217.78471 
L 824.759382 220.275363 
L 825.914815 220.275363 
L 825.914815 230.237975 
L 827.070247 230.237975 
L 827.070247 205.331445 
L 828.22568 205.331445 
L 828.22568 202.840792 
L 829.381112 202.840792 
L 829.381112 215.294057 
L 830.536545 215.294057 
L 830.536545 220.275363 
L 831.691977 220.275363 
L 831.691977 212.803404 
L 832.84741 212.803404 
L 832.84741 237.709934 
L 834.002842 237.709934 
L 834.002842 222.766016 
L 835.158275 222.766016 
L 835.158275 210.312751 
L 836.313707 210.312751 
L 836.313707 207.822098 
L 837.46914 207.822098 
L 837.46914 227.747322 
L 838.624572 227.747322 
L 838.624572 210.312751 
L 839.780005 210.312751 
L 839.780005 235.219281 
L 840.935437 235.219281 
L 840.935437 212.803404 
L 842.09087 212.803404 
L 842.09087 205.331445 
L 843.246302 205.331445 
L 843.246302 230.237975 
L 845.557167 230.237975 
L 845.557167 235.219281 
L 846.7126 235.219281 
L 846.7126 245.181893 
L 847.868032 245.181893 
L 847.868032 245.181893 
" clip-path="url(#p09090bb1ef)" style="fill: none; stroke: #ff7f0e; stroke-width: 1.5; stroke-linecap: square"/>
   </g>
   <g id="patch_9">
    <path d="M 483.906791 256.514364 
L 483.906791 7.2 
" style="fill: none; stroke: #000000; stroke-width: 0.8; stroke-linejoin: miter; stroke-linecap: square"/>
   </g>
   <g id="patch_10">
    <path d="M 865.19952 256.514364 
L 865.19952 7.2 
" style="fill: none; stroke: #000000; stroke-width: 0.8; stroke-linejoin: miter; stroke-linecap: square"/>
   </g>
   <g id="patch_11">
    <path d="M 483.906791 256.514364 
L 865.19952 256.514364 
" style="fill: none; stroke: #000000; stroke-width: 0.8; stroke-linejoin: miter; stroke-linecap: square"/>
   </g>
   <g id="patch_12">
    <path d="M 483.906791 7.2 
L 865.19952 7.2 
" style="fill: none; stroke: #000000; stroke-width: 0.8; stroke-linejoin: miter; stroke-linecap: square"/>
   </g>
   <g id="legend_2">
    <g id="patch_13">
     <path d="M 789.641707 45.201562 
L 858.19952 45.201562 
Q 860.19952 45.201562 860.19952 43.201562 
L 860.19952 14.2 
Q 860.19952 12.2 858.19952 12.2 
L 789.641707 12.2 
Q 787.641707 12.2 787.641707 14.2 
L 787.641707 43.201562 
Q 787.641707 45.201562 789.641707 45.201562 
z
" style="fill: #ffffff; opacity: 0.8; stroke: #cccccc; stroke-linejoin: miter"/>
    </g>
    <g id="line2d_32">
     <path d="M 791.641707 20.298437 
L 791.641707 20.298437 
L 801.641707 20.298437 
L 801.641707 20.298437 
L 811.641707 20.298437 
" style="fill: none; stroke: #1f77b4; stroke-width: 1.5; stroke-linecap: square"/>
    </g>
    <g id="text_32">
     <!-- pulse:0 -->
     <g transform="translate(819.641707 23.798437) scale(0.1 -0.1)">
      <use xlink:href="#DejaVuSans-53"/>
      <use xlink:href="#DejaVuSans-58" transform="translate(63.484375 0)"/>
      <use xlink:href="#DejaVuSans-4f" transform="translate(126.859375 0)"/>
      <use xlink:href="#DejaVuSans-56" transform="translate(154.640625 0)"/>
      <use xlink:href="#DejaVuSans-48" transform="translate(206.734375 0)"/>
      <use xlink:href="#DejaVuSans-1d" transform="translate(268.265625 0)"/>
      <use xlink:href="#DejaVuSans-13" transform="translate(301.953125 0)"/>
     </g>
    </g>
    <g id="line2d_33">
     <path d="M 791.641707 35.299219 
L 791.641707 35.299219 
L 801.641707 35.299219 
L 801.641707 35.299219 
L 811.641707 35.299219 
" style="fill: none; stroke: #ff7f0e; stroke-width: 1.5; stroke-linecap: square"/>
    </g>
    <g id="text_33">
     <!-- pulse:1 -->
     <g transform="translate(819.641707 38.799219) scale(0.1 -0.1)">
      <use xlink:href="#DejaVuSans-53"/>
      <use xlink:href="#DejaVuSans-58" transform="translate(63.484375 0)"/>
      <use xlink:href="#DejaVuSans-4f" transform="translate(126.859375 0)"/>
      <use xlink:href="#DejaVuSans-56" transform="translate(154.640625 0)"/>
      <use xlink:href="#DejaVuSans-48" transform="translate(206.734375 0)"/>
      <use xlink:href="#DejaVuSans-1d" transform="translate(268.265625 0)"/>
      <use xlink:href="#DejaVuSans-14" transform="translate(301.953125 0)"/>
     </g>
    </g>
   </g>
  </g>
 </g>
 <defs>
  <clipPath id="pda65b02490">
   <rect x="47.288281" y="7.2" width="381.292729" height="249.314364"/>
  </clipPath>
  <clipPath id="p09090bb1ef">
   <rect x="483.906791" y="7.2" width="381.292729" height="249.314364"/>
  </clipPath>
 </defs>
</svg>
